<svg version="1.1" xmlns="http://www.w3.org/2000/svg" viewBox="0 0 1155.1359851636707 701.810670167569" width="2310.2719703273415" height="1403.621340335138">
  <!-- svg-source:excalidraw -->
  
  <defs>
    <style class="style-fonts">
      @font-face {
        font-family: "Virgil";
        src: url("https://excalidraw.com/Virgil.woff2");
      }
      @font-face {
        font-family: "Cascadia";
        src: url("https://excalidraw.com/Cascadia.woff2");
      }
      @font-face {
        font-family: "Assistant";
        src: url("https://excalidraw.com/Assistant-Regular.woff2");
      }
    </style>
    
  </defs>
  <g stroke-linecap="round" transform="translate(212.03188258183536 367.50240393775795) rotate(0 53 57.5)"><path d="M26.5 0 C45.39 -0.72, 64.8 -0.46, 79.5 0 C97.39 -1.56, 108.91 8.86, 106 26.5 C108.68 51.23, 104.51 72.6, 106 88.5 C105.8 108.37, 95.56 117.98, 79.5 115 C68.32 112.21, 54.69 113.82, 26.5 115 C9.53 112.75, 1.14 104.44, 0 88.5 C2.52 75.81, -1.38 58.87, 0 26.5 C2.13 6.25, 5.32 0.87, 26.5 0" stroke="none" stroke-width="0" fill="#ffc9c9"></path><path d="M26.5 0 C44.55 2.03, 59.77 -0.34, 79.5 0 M26.5 0 C37.17 0.37, 48.49 -0.55, 79.5 0 M79.5 0 C98 -1.38, 104.3 7.29, 106 26.5 M79.5 0 C96.15 0.34, 104.48 9.79, 106 26.5 M106 26.5 C107.03 46.79, 106.74 66.3, 106 88.5 M106 26.5 C105 46.6, 105.02 68.47, 106 88.5 M106 88.5 C104.03 107.17, 96.98 113.41, 79.5 115 M106 88.5 C107.17 105.55, 99.2 117.12, 79.5 115 M79.5 115 C65.17 113.08, 54.73 113.94, 26.5 115 M79.5 115 C68.73 114.63, 55.69 114.8, 26.5 115 M26.5 115 C9.6 115.73, -1.47 105.13, 0 88.5 M26.5 115 C8.11 112.84, 1.88 105.51, 0 88.5 M0 88.5 C0.05 66.86, 0.08 43.69, 0 26.5 M0 88.5 C-1.2 68.66, -0.85 46.77, 0 26.5 M0 26.5 C1.69 8.64, 9.81 -0.04, 26.5 0 M0 26.5 C-1.09 10.59, 6.56 -0.32, 26.5 0" stroke="#1e1e1e" stroke-width="2" fill="none"></path></g><g transform="translate(224.01625758183536 401.00240393775795) rotate(0 41.015625 24)"><text x="41.015625" y="0" font-family="Cascadia, Segoe UI Emoji" font-size="20px" fill="#1e1e1e" text-anchor="middle" style="white-space: pre;" direction="ltr" dominant-baseline="text-before-edge">RU</text><text x="41.015625" y="24" font-family="Cascadia, Segoe UI Emoji" font-size="20px" fill="#1e1e1e" text-anchor="middle" style="white-space: pre;" direction="ltr" dominant-baseline="text-before-edge">(radio)</text></g><g stroke-linecap="round" transform="translate(372.0672255818354 367.50240393775795) rotate(0 61 57.5)"><path d="M28.75 0 C40.4 -2.07, 54.89 3.8, 93.25 0 C115.47 -3.41, 120.86 8.23, 122 28.75 C119.34 45.6, 122.09 56.15, 122 86.25 C125.03 106.12, 113.1 115.26, 93.25 115 C75.45 116.98, 50.63 113.41, 28.75 115 C12.01 118.32, -0.05 103.2, 0 86.25 C-1.71 77.21, 0.89 60.31, 0 28.75 C2.28 11.23, 6.97 -0.68, 28.75 0" stroke="none" stroke-width="0" fill="#b2f2bb"></path><path d="M28.75 0 C44.56 0.85, 60.6 0.3, 93.25 0 M28.75 0 C49.22 -0.86, 69.86 0.11, 93.25 0 M93.25 0 C113.75 -1.17, 120.02 8.39, 122 28.75 M93.25 0 C114.35 0.27, 123.49 10.93, 122 28.75 M122 28.75 C120.98 51.9, 120.31 70.86, 122 86.25 M122 28.75 C121.86 48.14, 121.73 68.01, 122 86.25 M122 86.25 C121.94 105.09, 114.01 115.21, 93.25 115 M122 86.25 C122.71 105.98, 110.68 115.34, 93.25 115 M93.25 115 C76.31 115.5, 55.36 114.24, 28.75 115 M93.25 115 C75.01 115.63, 55.85 114.99, 28.75 115 M28.75 115 C10.31 114.75, -0.5 105.34, 0 86.25 M28.75 115 C9.81 115.81, -0.77 106.7, 0 86.25 M0 86.25 C-0.66 70.8, -1.67 52.11, 0 28.75 M0 86.25 C-0.95 74.11, 0.81 62.35, 0 28.75 M0 28.75 C1.3 7.79, 8.31 -0.06, 28.75 0 M0 28.75 C0.37 7.56, 9.7 0.97, 28.75 0" stroke="#1e1e1e" stroke-width="2" fill="none"></path></g><g transform="translate(380.3328505818354 401.00240393775795) rotate(0 52.734375 24)"><text x="52.734375" y="0" font-family="Cascadia, Segoe UI Emoji" font-size="20px" fill="#1e1e1e" text-anchor="middle" style="white-space: pre;" direction="ltr" dominant-baseline="text-before-edge">DU</text><text x="52.734375" y="24" font-family="Cascadia, Segoe UI Emoji" font-size="20px" fill="#1e1e1e" text-anchor="middle" style="white-space: pre;" direction="ltr" dominant-baseline="text-before-edge">(process)</text></g><g stroke-opacity="0" fill-opacity="0" stroke-linecap="round" transform="translate(9.999999999999886 365.7450803559223) rotate(0 58.378661581835615 58.378661581835615)"><path d="M63.58 -0.71 C72.41 -0.79, 82.66 3.53, 90.08 8.54 C97.5 13.55, 103.51 21.26, 108.09 29.35 C112.68 37.44, 117.19 48.16, 117.61 57.09 C118.03 66.01, 114.84 75.02, 110.63 82.88 C106.41 90.74, 99.51 98.77, 92.32 104.27 C85.13 109.77, 76.14 114.29, 67.47 115.89 C58.8 117.48, 48.9 116.57, 40.29 113.85 C31.69 111.12, 22.34 106.06, 15.84 99.56 C9.33 93.07, 3.67 83.72, 1.27 74.87 C-1.14 66.03, -0.51 55.31, 1.38 46.51 C3.28 37.7, 6.9 29.18, 12.65 22.05 C18.39 14.93, 25.38 6.98, 35.86 3.76 C46.34 0.53, 67.15 1.85, 75.53 2.71 C83.9 3.57, 86.43 7.95, 86.13 8.91 M71.32 2.86 C80.05 3.93, 90.33 9.08, 97.45 15.01 C104.57 20.94, 110.79 29.75, 114.04 38.43 C117.29 47.11, 118.33 58.13, 116.95 67.07 C115.57 76.01, 110.96 84.86, 105.74 92.08 C100.52 99.3, 93.77 106.54, 85.63 110.4 C77.49 114.27, 66.07 115.29, 56.91 115.26 C47.76 115.24, 38.29 114.5, 30.69 110.27 C23.09 106.03, 16.45 97.55, 11.32 89.85 C6.19 82.15, 1.11 72.76, -0.11 64.07 C-1.34 55.38, 0.45 46.22, 3.97 37.73 C7.5 29.23, 14.46 19.12, 21.04 13.12 C27.61 7.11, 34.75 3.38, 43.45 1.71 C52.15 0.04, 68.26 2.98, 73.23 3.09 C78.21 3.19, 73.56 1.73, 73.29 2.34" stroke="#1e1e1e" stroke-width="1" fill="none"></path></g><g stroke-linecap="round" transform="translate(45.933180123023135 375.80757014242516) rotate(0 22.445481458812083 34.327365930073)"><path d="M0 0 C14.68 -1.91, 33.38 -1.91, 44.89 0 M0 0 C14.85 1.32, 30.6 0.03, 44.89 0 M44.89 0 C44.13 15.32, 45.46 31.56, 44.89 68.65 M44.89 0 C45.98 18.79, 45.53 36.61, 44.89 68.65 M44.89 68.65 C28.54 68.73, 11.52 69.66, 0 68.65 M44.89 68.65 C30.07 69.75, 15.73 69.59, 0 68.65 M0 68.65 C0.49 48.61, 1.67 26.17, 0 0 M0 68.65 C-0.93 46.04, -0.36 25.67, 0 0" stroke="#1e1e1e" stroke-width="1" fill="none"></path></g><g stroke-linecap="round" transform="translate(51.07270188465793 381.0418464268785) rotate(0 17.68634444021592 26.254098365838104)"><path d="M0 0 C11.77 -1.51, 23.05 -0.91, 35.37 0 M0 0 C8.08 -0.71, 13.77 -1.27, 35.37 0 M35.37 0 C36.57 11.28, 34.77 23.72, 35.37 52.51 M35.37 0 C35.64 9.96, 36.39 21.4, 35.37 52.51 M35.37 52.51 C28.16 53.96, 20.3 53.3, 0 52.51 M35.37 52.51 C22.07 53.53, 10.69 52.86, 0 52.51 M0 52.51 C1.56 32.85, 0.16 15.06, 0 0 M0 52.51 C0.23 36.47, 1.18 19.01, 0 0" stroke="#1e1e1e" stroke-width="1" fill="none"></path></g><g stroke-linecap="round" transform="translate(65.13696358008008 435.79717261973803) rotate(0 3.622082744793545 3.6220827447935733)"><path d="M3.55 0.3 C4.31 0.14, 4.98 0.04, 5.52 0.38 C6.06 0.72, 6.56 1.55, 6.79 2.33 C7.02 3.11, 7.14 4.28, 6.91 5.05 C6.68 5.82, 6.12 6.54, 5.41 6.94 C4.7 7.33, 3.48 7.61, 2.64 7.44 C1.8 7.26, 0.79 6.58, 0.36 5.9 C-0.07 5.22, -0.01 4.13, 0.06 3.37 C0.14 2.61, 0.25 1.96, 0.8 1.36 C1.35 0.75, 2.92 -0.06, 3.36 -0.26 C3.8 -0.46, 3.45 0.01, 3.46 0.16 M3.35 0.44 C3.98 0.43, 4.9 0.82, 5.55 1.26 C6.19 1.7, 6.98 2.37, 7.23 3.1 C7.47 3.83, 7.4 4.91, 7.03 5.64 C6.66 6.37, 5.82 7.24, 5 7.48 C4.19 7.72, 2.88 7.41, 2.15 7.07 C1.41 6.72, 1 6.19, 0.6 5.41 C0.19 4.63, -0.4 3.16, -0.29 2.41 C-0.17 1.66, 0.56 1.4, 1.29 0.92 C2.02 0.44, 3.73 -0.26, 4.11 -0.46 C4.49 -0.65, 3.61 -0.41, 3.54 -0.25" stroke="#1e1e1e" stroke-width="1" fill="none"></path></g><g stroke-linecap="round" transform="translate(56.32124678928142 387.7258499490766) rotate(0 12.437799535592092 6.304023542482355)"><path d="M0 0 C4.23 0.04, 11.26 0.91, 24.88 0 M0 0 C6.02 0.09, 12.87 0.42, 24.88 0 M24.88 0 C24.24 4.28, 24.96 7.99, 24.88 12.61 M24.88 0 C24.66 3.05, 24.99 5.99, 24.88 12.61 M24.88 12.61 C16.2 11.94, 7.4 11.72, 0 12.61 M24.88 12.61 C15.95 12.74, 6.63 13.04, 0 12.61 M0 12.61 C0.06 8.77, -0.64 5.74, 0 0 M0 12.61 C-0.15 8.31, -0.04 4.5, 0 0" stroke="#1e1e1e" stroke-width="1" fill="none"></path></g><g stroke-linecap="round" transform="translate(56.32124678928142 410.26612516328584) rotate(0 12.437799535592092 6.304023542482355)"><path d="M0 0 C6.82 0.84, 11.47 -0.72, 24.88 0 M0 0 C5.02 0.31, 10.27 -0.14, 24.88 0 M24.88 0 C24.91 4.93, 24.4 10.33, 24.88 12.61 M24.88 0 C24.89 4.06, 25.04 8.02, 24.88 12.61 M24.88 12.61 C17.41 11.58, 8.9 12.57, 0 12.61 M24.88 12.61 C17.52 13.07, 9.57 12.71, 0 12.61 M0 12.61 C-0.63 8.34, 0.15 4.77, 0 0 M0 12.61 C0.03 10.06, 0.25 7.07, 0 0" stroke="#1e1e1e" stroke-width="1" fill="none"></path></g><g transform="translate(54.498664328417476 447.43991373309075) rotate(0 13.879997253417969 12.500000000000028)"><text x="13.879997253417969" y="0" font-family="Virgil, Segoe UI Emoji" font-size="20px" fill="#1e1e1e" text-anchor="middle" style="white-space: pre;" direction="ltr" dominant-baseline="text-before-edge">UE</text></g><g stroke-opacity="0" fill-opacity="0" stroke-linecap="round" transform="translate(299.37866199999985 272.3664183559223) rotate(0 58.37866158183567 58.378661581835615)"><path d="M82.69 5.8 C90.88 8.71, 99.96 16.42, 105.66 23.55 C111.37 30.68, 115.55 39.81, 116.92 48.6 C118.29 57.39, 116.79 67.67, 113.89 76.3 C111 84.92, 106.28 93.89, 99.55 100.34 C92.83 106.8, 82.37 112.56, 73.56 115.05 C64.75 117.54, 55.48 117.12, 46.7 115.28 C37.91 113.43, 27.83 109.69, 20.86 103.96 C13.88 98.22, 8.27 89.4, 4.84 80.86 C1.4 72.32, -0.59 61.72, 0.25 52.72 C1.1 43.71, 5.14 34.22, 9.91 26.81 C14.67 19.4, 21.15 12.82, 28.84 8.24 C36.53 3.67, 45.44 -1.16, 56.03 -0.66 C66.61 -0.17, 84.93 7.88, 92.36 11.2 C99.79 14.53, 100.92 18.54, 100.61 19.27 M54.18 -1.02 C62.39 -2.48, 71.99 2.06, 80.4 5.71 C88.81 9.35, 98.81 13.89, 104.64 20.83 C110.47 27.77, 113.67 38.18, 115.37 47.35 C117.07 56.53, 117.44 67.13, 114.85 75.88 C112.26 84.62, 106.03 93.68, 99.85 99.82 C93.67 105.97, 86.24 110.3, 77.75 112.75 C69.26 115.21, 57.77 115.83, 48.9 114.53 C40.03 113.22, 31.78 110.24, 24.52 104.93 C17.27 99.63, 9.54 90.9, 5.36 82.71 C1.18 74.52, -0.88 64.57, -0.54 55.81 C-0.21 47.05, 2.95 37.78, 7.37 30.16 C11.79 22.54, 18.36 15.32, 25.98 10.09 C33.59 4.86, 48.57 0.18, 53.07 -1.21 C57.56 -2.61, 52.96 0.6, 52.95 1.73" stroke="#1e1e1e" stroke-width="1" fill="none"></path></g><g stroke-linecap="round" transform="translate(339.1231435833579 281.1724584418881) rotate(0 18.63417999847718 34.78380266382396)"><path d="M0 0 C12.53 -0.04, 29.9 -0.12, 37.27 0 M0 0 C13.56 0.87, 28.5 -0.85, 37.27 0 M37.27 0 C36.77 25.51, 38.06 48.57, 37.27 69.57 M37.27 0 C36.71 20.49, 37.4 41.91, 37.27 69.57 M37.27 69.57 C28.22 67.86, 21.4 67.9, 0 69.57 M37.27 69.57 C26.86 68.9, 15.36 70.34, 0 69.57 M0 69.57 C0.97 45.05, 1.79 18.67, 0 0 M0 69.57 C-0.44 43.73, 0.42 19.82, 0 0" stroke="#1e1e1e" stroke-width="1" fill="none"></path></g><g stroke-linecap="round"><g transform="translate(343.89488644837184 288.8684091078437) rotate(0 14.286204665499099 1.1368683772161603e-13)"><path d="M0.02 0.23 C4.75 0.41, 23.87 0.5, 28.57 0.48 M-0.64 -0.12 C4.01 -0.05, 23.15 -0.39, 28.13 -0.24" stroke="#1e1e1e" stroke-width="1" fill="none"></path></g></g><mask></mask><g stroke-linecap="round"><g transform="translate(342.98298374959995 295.2722068854521) rotate(0 14.286204665499099 1.1368683772161603e-13)"><path d="M-0.01 0.48 C4.69 0.46, 23.49 0.12, 28.18 0.13 M-0.67 0.25 C4.19 0.04, 24.23 -0.68, 29.21 -0.77" stroke="#1e1e1e" stroke-width="1" fill="none"></path></g></g><mask></mask><g stroke-linecap="round"><g transform="translate(343.10921962583234 301.67600466306135) rotate(0 14.286204665499099 1.1368683772161603e-13)"><path d="M-0.4 0.13 C4.29 0.14, 23.3 0.62, 28.1 0.53 M0.4 -0.28 C5.25 -0.17, 24.5 -0.2, 29.08 -0.16" stroke="#1e1e1e" stroke-width="1" fill="none"></path></g></g><mask></mask><g stroke-linecap="round"><g transform="translate(343.0236842570621 308.07980244067016) rotate(0 14.286204665499099 1.1368683772161603e-13)"><path d="M-0.48 0.53 C4.32 0.44, 23.49 -0.36, 28.38 -0.42 M0.28 0.33 C5.02 0.28, 23.12 0.26, 27.85 0.07" stroke="#1e1e1e" stroke-width="1" fill="none"></path></g></g><mask></mask><g stroke-linecap="round" transform="translate(364.56439320325126 315.00802813672055) rotate(0 3.320581637643386 2.414968463740564)"><path d="M3.48 0.19 C4.16 0.21, 5.23 0.37, 5.76 0.66 C6.28 0.96, 6.55 1.47, 6.64 1.98 C6.73 2.5, 6.72 3.27, 6.28 3.76 C5.84 4.25, 4.72 4.84, 3.98 4.94 C3.24 5.04, 2.49 4.65, 1.82 4.37 C1.15 4.1, 0.28 3.77, -0.02 3.3 C-0.31 2.82, -0.24 2.06, 0.03 1.54 C0.31 1.02, 1.03 0.42, 1.62 0.19 C2.22 -0.04, 3.23 0.17, 3.59 0.16 C3.96 0.15, 3.84 0.15, 3.8 0.13 M3.59 0.17 C4.24 0.29, 5.38 0.7, 5.86 1.1 C6.34 1.49, 6.39 2.14, 6.47 2.54 C6.55 2.94, 6.75 3.19, 6.36 3.48 C5.97 3.77, 4.82 4.09, 4.14 4.28 C3.47 4.46, 2.97 4.76, 2.32 4.58 C1.66 4.41, 0.62 3.69, 0.22 3.22 C-0.18 2.75, -0.25 2.14, -0.07 1.74 C0.11 1.33, 0.74 1.01, 1.28 0.79 C1.83 0.57, 2.87 0.6, 3.22 0.4 C3.57 0.2, 3.38 -0.4, 3.4 -0.4" stroke="#1e1e1e" stroke-width="1" fill="none"></path></g><g stroke-linecap="round"><g transform="translate(149.44742258183555 26.745079937757964) rotate(0 -5.684341886080802e-14 327.90063399999997)"><path d="M-0.95 1.01 C-1.15 110.63, -0.46 547.86, -0.45 656.85" stroke="#1e1e1e" stroke-width="2.5" fill="none" stroke-dasharray="1.5 8"></path></g></g><mask></mask><g stroke-linecap="round" transform="translate(189.7573235818354 263.7450799377579) rotate(0 164 155)"><path d="M32 0 C101.61 -3.43, 173.53 -3.47, 296 0 M296 0 C318.04 0.78, 329.57 11.21, 328 32 M328 32 C324.74 124.93, 327.56 216.7, 328 278 M328 278 C326.04 300.69, 318.07 308.69, 296 310 M296 310 C238.58 309.07, 183.17 311.35, 32 310 M32 310 C12.01 310.12, 0.52 299.96, 0 278 M0 278 C0.97 215.77, -0.66 154.74, 0 32 M0 32 C1.13 12.59, 10.59 -1.87, 32 0" stroke="#1e1e1e" stroke-width="2.5" fill="none" stroke-dasharray="1.5 8"></path></g><g transform="translate(224.8510735818354 510.7450799377579) rotate(0 128.90625 12)"><text x="0" y="0" font-family="Cascadia, Segoe UI Emoji" font-size="20px" fill="#1e1e1e" text-anchor="start" style="white-space: pre;" direction="ltr" dominant-baseline="text-before-edge">gNB - the base station</text></g><g stroke-linecap="round"><g transform="translate(109.75732358183541 422.7450799377579) rotate(0 50 0.5)"><path d="M0.11 1.04 C16.76 1.31, 83.37 2.09, 100.07 1.95 M-1.29 0.54 C15.2 0.46, 82.32 0.23, 99.15 0.32" stroke="#1e1e1e" stroke-width="2" fill="none"></path></g><g transform="translate(109.75732358183541 422.7450799377579) rotate(0 50 0.5)"><path d="M75.66 8.86 C84.7 6.29, 91.88 4.01, 99.15 0.32 M75.66 8.86 C81.51 7.17, 87.32 5.01, 99.15 0.32" stroke="#1e1e1e" stroke-width="2" fill="none"></path></g><g transform="translate(109.75732358183541 422.7450799377579) rotate(0 50 0.5)"><path d="M75.66 -8.24 C84.75 -5.48, 91.93 -2.41, 99.15 0.32 M75.66 -8.24 C81.63 -5.94, 87.45 -4.11, 99.15 0.32" stroke="#1e1e1e" stroke-width="2" fill="none"></path></g></g><mask></mask><g stroke-linecap="round"><g transform="translate(314.7573235818354 427.61209487981876) rotate(0 26 0)"><path d="M0.61 0.03 C9.13 0.05, 43.63 0.2, 52.31 0.07 M-0.53 -1 C7.76 -0.76, 42.71 1.45, 51.52 1.65" stroke="#1e1e1e" stroke-width="2" fill="none"></path></g><g transform="translate(314.7573235818354 427.61209487981876) rotate(0 26 0)"><path d="M27.67 9.13 C37.25 6.54, 46.84 4.23, 51.52 1.65 M27.67 9.13 C32.77 6.69, 38.98 5.82, 51.52 1.65" stroke="#1e1e1e" stroke-width="2" fill="none"></path></g><g transform="translate(314.7573235818354 427.61209487981876) rotate(0 26 0)"><path d="M28.44 -7.95 C37.7 -3.72, 46.99 0.8, 51.52 1.65 M28.44 -7.95 C33.49 -6.38, 39.51 -3.21, 51.52 1.65" stroke="#1e1e1e" stroke-width="2" fill="none"></path></g></g><mask></mask><g stroke-linecap="round" transform="translate(579.7573235818354 322.75819593775793) rotate(0 112.5 107.50000000000003)"><path d="M32 0 C76.88 -3.31, 127.42 1.78, 193 0 C214.66 -1.57, 226.67 7.29, 225 32 C221.7 65.12, 224.28 107.22, 225 183 C226.65 200.88, 217.28 211.5, 193 215 C163.3 216.44, 125.74 216.92, 32 215 C8.93 214.05, -3.23 202.99, 0 183 C-0.78 141.58, 5.51 99.44, 0 32 C-3.11 14, 12.89 -0.15, 32 0" stroke="none" stroke-width="0" fill="#fff9db"></path><path d="M32 0 C75.67 1.26, 122.22 -0.39, 193 0 M32 0 C90.13 -1.26, 149.2 -1.3, 193 0 M193 0 C214.91 0.5, 225.96 11.59, 225 32 M193 0 C213.11 -0.31, 225.47 10.18, 225 32 M225 32 C227.64 64.52, 227.51 100.16, 225 183 M225 32 C225.08 65.98, 226.17 101.1, 225 183 M225 183 C225.39 205.24, 214.22 215.33, 193 215 M225 183 C227.15 204.82, 212.05 214.82, 193 215 M193 215 C148.87 215.17, 100.54 213.17, 32 215 M193 215 C153.39 216.63, 112.22 215.88, 32 215 M32 215 C10.47 216.35, -1.66 203.56, 0 183 M32 215 C9.37 215.83, 0.33 203.2, 0 183 M0 183 C-1.76 123.82, 1.05 66.27, 0 32 M0 183 C-0.09 128.66, -0.65 74.83, 0 32 M0 32 C-0.46 11.89, 10.62 1.88, 32 0 M0 32 C1.05 12.15, 8.44 1.88, 32 0" stroke="#1e1e1e" stroke-width="2" fill="none"></path></g><g transform="translate(586.7885735818354 370.25819593775793) rotate(0 105.46875 60.00000000000003)"><text x="105.46875" y="0" font-family="Cascadia, Segoe UI Emoji" font-size="20px" fill="#1e1e1e" text-anchor="middle" style="white-space: pre;" direction="ltr" dominant-baseline="text-before-edge">UPF</text><text x="105.46875" y="24" font-family="Cascadia, Segoe UI Emoji" font-size="20px" fill="#1e1e1e" text-anchor="middle" style="white-space: pre;" direction="ltr" dominant-baseline="text-before-edge">(user plane </text><text x="105.46875" y="48" font-family="Cascadia, Segoe UI Emoji" font-size="20px" fill="#1e1e1e" text-anchor="middle" style="white-space: pre;" direction="ltr" dominant-baseline="text-before-edge">function, packets </text><text x="105.46875" y="72" font-family="Cascadia, Segoe UI Emoji" font-size="20px" fill="#1e1e1e" text-anchor="middle" style="white-space: pre;" direction="ltr" dominant-baseline="text-before-edge">inspection, QoS </text><text x="105.46875" y="96" font-family="Cascadia, Segoe UI Emoji" font-size="20px" fill="#1e1e1e" text-anchor="middle" style="white-space: pre;" direction="ltr" dominant-baseline="text-before-edge">etc.)</text></g><g stroke-linecap="round"><g transform="translate(494.0672255513946 429.25819546354245) rotate(0 39.84504901522041 0.20104459966177046)"><path d="M-0.21 0.7 C13.17 0.48, 67.22 -0.76, 80.59 -0.72 M-1.78 0.03 C11.49 -0.14, 66.58 0.42, 80.12 0.23" stroke="#1e1e1e" stroke-width="2" fill="none"></path></g><g transform="translate(494.0672255513946 429.25819546354245) rotate(0 39.84504901522041 0.20104459966177046)"><path d="M56.63 8.79 C65.42 7.55, 70.04 3.87, 80.12 0.23 M56.63 8.79 C64.77 5.26, 72.85 2.26, 80.12 0.23" stroke="#1e1e1e" stroke-width="2" fill="none"></path></g><g transform="translate(494.0672255513946 429.25819546354245) rotate(0 39.84504901522041 0.20104459966177046)"><path d="M56.63 -8.31 C65.5 -3.98, 70.13 -2.08, 80.12 0.23 M56.63 -8.31 C64.6 -5.93, 72.68 -3.02, 80.12 0.23" stroke="#1e1e1e" stroke-width="2" fill="none"></path></g></g><mask></mask><g stroke-opacity="0" fill-opacity="0" stroke-linecap="round" transform="translate(657.3786620000001 42.86641835592249) rotate(0 90.37866158183556 90.37866158183552)"><path d="M93.68 0.49 C104.98 -0.6, 118.93 3.36, 129.57 8.15 C140.21 12.95, 150.05 20.66, 157.53 29.23 C165.01 37.81, 170.64 48.69, 174.45 59.62 C178.26 70.55, 180.84 83.44, 180.38 94.83 C179.91 106.21, 176.42 117.46, 171.66 127.91 C166.91 138.37, 160.43 149.53, 151.87 157.57 C143.31 165.61, 131.23 172.14, 120.29 176.14 C109.36 180.13, 97.78 182.07, 86.26 181.54 C74.73 181, 61.46 177.84, 51.14 172.93 C40.82 168.02, 31.99 160.83, 24.33 152.08 C16.67 143.33, 9.39 131.48, 5.18 120.45 C0.98 109.42, -1.35 97.43, -0.9 85.91 C-0.45 74.39, 2.68 61.81, 7.88 51.33 C13.09 40.84, 21.78 30.71, 30.32 23.01 C38.87 15.31, 46.63 8.71, 59.18 5.13 C71.72 1.56, 96.12 1.47, 105.57 1.57 C115.03 1.67, 116.27 4.48, 115.9 5.75 M51.47 9.24 C60.74 3.18, 73.99 0.39, 85.45 -0.12 C96.91 -0.64, 109.63 2.48, 120.22 6.14 C130.82 9.8, 140.44 14.56, 149.04 21.84 C157.65 29.12, 166.71 39.21, 171.86 49.82 C177.01 60.44, 179.22 74.04, 179.94 85.53 C180.67 97.02, 179.65 107.92, 176.21 118.75 C172.78 129.59, 166.79 141.81, 159.33 150.55 C151.88 159.29, 141.91 166.28, 131.51 171.18 C121.1 176.09, 108.84 179.35, 96.9 179.96 C84.97 180.58, 71.19 178.71, 59.9 174.85 C48.61 170.99, 37.52 164.15, 29.16 156.8 C20.8 149.46, 14.4 140.67, 9.73 130.78 C5.06 120.89, 1.96 109.31, 1.15 97.48 C0.34 85.64, 1.25 70.67, 4.88 59.77 C8.51 48.87, 15.27 40.27, 22.95 32.09 C30.63 23.92, 46.44 14.09, 50.94 10.71 C55.44 7.33, 49.52 10.89, 49.98 11.83" stroke="#1e1e1e" stroke-width="1" fill="none"></path></g><g stroke-linecap="round"><g transform="translate(707.2391368872923 152.1171489580715) rotate(0 41.04112875131068 -40.39855243069418)"><path d="M0.11 -1.05 C14.03 -1.4, 67.84 0.88, 84.41 -1.73 C100.98 -4.35, 100.54 -10.37, 99.52 -16.73 C98.49 -23.09, 81.53 -32.13, 78.25 -39.89 C74.96 -47.65, 82.34 -56.42, 79.82 -63.3 C77.3 -70.17, 69.79 -78.65, 63.12 -81.14 C56.45 -83.64, 45.49 -81.1, 39.79 -78.25 C34.09 -75.39, 32.73 -65.42, 28.91 -64 C25.08 -62.58, 20.48 -70.41, 16.84 -69.72 C13.19 -69.03, 8.66 -63.6, 7.05 -59.84 C5.43 -56.08, 9.66 -50.13, 7.15 -47.16 C4.65 -44.19, -4.12 -45.11, -7.99 -42.01 C-11.86 -38.91, -14.77 -33.87, -16.07 -28.55 C-17.37 -23.22, -18.38 -14.7, -15.78 -10.07 C-13.18 -5.44, -2.96 -2.63, -0.48 -0.77 M-1.29 1.02 C12.48 0.76, 67.26 2.57, 83.97 -0.68 C100.69 -3.94, 99.95 -11.6, 99 -18.52 C98.05 -25.44, 81.72 -34.69, 78.26 -42.18 C74.8 -49.67, 80.52 -56.78, 78.24 -63.47 C75.95 -70.17, 70.81 -80.23, 64.55 -82.37 C58.29 -84.5, 46.25 -79.35, 40.67 -76.29 C35.08 -73.23, 35.25 -65.39, 31.05 -64.01 C26.85 -62.62, 19.86 -68.6, 15.46 -67.99 C11.06 -67.38, 6.5 -63.86, 4.65 -60.32 C2.8 -56.78, 6.63 -49.81, 4.36 -46.76 C2.09 -43.7, -5.67 -44.88, -8.96 -42.01 C-12.25 -39.13, -14.65 -35.31, -15.37 -29.51 C-16.09 -23.71, -15.77 -11.86, -13.28 -7.23 C-10.78 -2.6, -2.56 -2.81, -0.4 -1.73" stroke="#1e1e1e" stroke-width="1" fill="none"></path></g></g><mask></mask><g stroke-linecap="round"><g transform="translate(472.7573235818354 366.7450799377579) rotate(0 85 -103.5)"><path d="M0.16 0.64 C28.3 -33.73, 140.83 -172, 169.23 -206.46 M-1.22 -0.06 C27.27 -34.78, 142.98 -173.65, 171.54 -208.29" stroke="#1e1e1e" stroke-width="2" fill="none"></path></g><g transform="translate(472.7573235818354 366.7450799377579) rotate(0 85 -103.5)"><path d="M163.13 -184.75 C167.03 -193.84, 169.65 -199.38, 171.54 -208.29 M163.13 -184.75 C165.52 -194.25, 168.72 -202.56, 171.54 -208.29" stroke="#1e1e1e" stroke-width="2" fill="none"></path></g><g transform="translate(472.7573235818354 366.7450799377579) rotate(0 85 -103.5)"><path d="M149.96 -195.67 C158.21 -201.16, 165.19 -203.08, 171.54 -208.29 M149.96 -195.67 C157.4 -201.12, 165.55 -205.32, 171.54 -208.29" stroke="#1e1e1e" stroke-width="2" fill="none"></path></g></g><mask></mask><g stroke-linecap="round"><g transform="translate(694.2573235818354 319.7450799377579) rotate(0 0.25 -51.5)"><path d="M0.13 0.7 C-0.04 -16.29, -0.6 -85.2, -0.51 -102.36 M-1.26 0.02 C-1.12 -17.28, 1.46 -86.77, 1.67 -104.15" stroke="#1e1e1e" stroke-width="2" fill="none"></path></g><g transform="translate(694.2573235818354 319.7450799377579) rotate(0 0.25 -51.5)"><path d="M9.61 -80.45 C8.14 -90.25, 5.31 -96.4, 1.67 -104.15 M9.61 -80.45 C6.01 -89.63, 4.82 -96.99, 1.67 -104.15" stroke="#1e1e1e" stroke-width="2" fill="none"></path></g><g transform="translate(694.2573235818354 319.7450799377579) rotate(0 0.25 -51.5)"><path d="M-7.49 -80.89 C-3.1 -90.56, -0.07 -96.56, 1.67 -104.15 M-7.49 -80.89 C-4.97 -89.86, -0.05 -97.06, 1.67 -104.15" stroke="#1e1e1e" stroke-width="2" fill="none"></path></g></g><mask></mask><g stroke-linecap="round" transform="translate(645.5945331864866 119.06130793775793) rotate(0 48.66279069767438 46.5)"><path d="M23.25 0 C40.81 -3.11, 52.69 2.86, 74.08 0 C90.24 -2.75, 94.96 9.97, 97.33 23.25 C96.95 39.59, 99.44 60.08, 97.33 69.75 C98.09 84.36, 90.02 93.04, 74.08 93 C56.71 92.36, 42.28 93.71, 23.25 93 C6.65 89.94, 2.2 82.15, 0 69.75 C-0.88 57.05, 1.22 46.45, 0 23.25 C1.33 10.26, 9.19 2.85, 23.25 0" stroke="none" stroke-width="0" fill="#e7f5ff"></path><path d="M23.25 0 C42.54 1.19, 61.91 1.49, 74.08 0 M23.25 0 C34 0.08, 44.5 0.36, 74.08 0 M74.08 0 C87.91 -1.35, 97.19 9.5, 97.33 23.25 M74.08 0 C88.12 1.78, 96.56 9.37, 97.33 23.25 M97.33 23.25 C97.59 38.78, 96.51 51.05, 97.33 69.75 M97.33 23.25 C97.24 41.16, 96.76 58.03, 97.33 69.75 M97.33 69.75 C99.03 83.43, 88.46 91.03, 74.08 93 M97.33 69.75 C96.1 87.51, 87.57 92.55, 74.08 93 M74.08 93 C59.79 91.02, 47.5 92.12, 23.25 93 M74.08 93 C55.99 92.85, 37.1 93.35, 23.25 93 M23.25 93 C6.75 91.5, -0.97 87.12, 0 69.75 M23.25 93 C7.89 93.92, 1.41 86, 0 69.75 M0 69.75 C-1.57 60.33, 1.69 51.22, 0 23.25 M0 69.75 C-0.13 56.35, 0.99 43.85, 0 23.25 M0 23.25 C-1.15 9.71, 9.56 -1.01, 23.25 0 M0 23.25 C0.25 7.33, 5.47 -1.73, 23.25 0" stroke="#1e1e1e" stroke-width="2" fill="none"></path></g><g transform="translate(675.545409821661 152.78195456282882) rotate(0 18.7119140625 12.779353374929102)"><text x="18.7119140625" y="0" font-family="Cascadia, Segoe UI Emoji" font-size="21.29892229154851px" fill="#1e1e1e" text-anchor="middle" style="white-space: pre;" direction="ltr" dominant-baseline="text-before-edge">5GC</text></g><g stroke-linecap="round"><g transform="translate(548.0666685350036 24.745079937757964) rotate(0 0 331.85840558129735)"><path d="M0.59 1.03 C0.89 111.59, 0.79 553.04, 0.7 663.66" stroke="#1e1e1e" stroke-width="2.5" fill="none" stroke-dasharray="1.5 8"></path></g></g><mask></mask><g stroke-linecap="round"><g transform="translate(838.0666685157214 10.403841945528995) rotate(0 -1 340.85840558129735)"><path d="M0.67 -0.4 C0.18 113.03, -2.75 567.57, -3.05 681.41" stroke="#1e1e1e" stroke-width="2.5" fill="none" stroke-dasharray="1.5 8"></path></g></g><mask></mask><g stroke-opacity="0" fill-opacity="0" stroke-linecap="round" transform="translate(967.3786619999996 305.36641835592224) rotate(0 88.87866158183567 88.87866158183562)"><path d="M59.45 6.21 C69.2 1.28, 81.61 -0.26, 92.82 0.23 C104.02 0.72, 116.29 4.45, 126.66 9.14 C137.04 13.83, 147.51 19.92, 155.07 28.36 C162.64 36.8, 168.32 49.01, 172.03 59.79 C175.74 70.57, 177.63 81.86, 177.32 93.04 C177.01 104.23, 174.95 116.61, 170.17 126.91 C165.4 137.21, 157.24 147.24, 148.67 154.85 C140.1 162.46, 129.37 168.81, 118.77 172.58 C108.18 176.34, 96.31 177.93, 85.1 177.42 C73.88 176.91, 61.76 174.31, 51.48 169.51 C41.2 164.71, 31.24 157.08, 23.44 148.63 C15.63 140.17, 8.62 129.46, 4.62 118.76 C0.62 108.05, -1.1 95.76, -0.56 84.4 C-0.01 73.03, 3.02 60.83, 7.89 50.57 C12.76 40.3, 18.22 30.94, 28.67 22.81 C39.11 14.68, 61.58 5.24, 70.57 1.76 C79.55 -1.71, 82.21 0.37, 82.59 1.96 M80.75 0.27 C91.37 -2.28, 105.37 0.5, 116.29 3.78 C127.21 7.05, 137.92 12.55, 146.28 19.9 C154.63 27.25, 161 37.65, 166.42 47.89 C171.84 58.13, 177.79 69.87, 178.79 81.33 C179.79 92.79, 175.93 105.74, 172.41 116.64 C168.89 127.53, 164.52 138.38, 157.66 146.71 C150.8 155.04, 141.19 161.71, 131.26 166.61 C121.33 171.51, 109.53 175.03, 98.07 176.12 C86.61 177.21, 73.52 176.53, 62.51 173.14 C51.5 169.75, 40.55 162.95, 32 155.78 C23.45 148.62, 16.62 139.98, 11.21 130.17 C5.8 120.35, 0.79 108.37, -0.47 96.89 C-1.72 85.42, 0.17 72.19, 3.67 61.3 C7.18 50.41, 13.24 39.98, 20.56 31.56 C27.88 23.13, 37.5 15.84, 47.58 10.76 C57.66 5.68, 75.53 2.35, 81.05 1.09 C86.56 -0.18, 80.53 1.65, 80.67 3.16" stroke="#1e1e1e" stroke-width="1" fill="none"></path></g><g stroke-linecap="round"><g transform="translate(1016.4116106657045 412.803932286846) rotate(0 40.359975788327006 -39.72806420277141)"><path d="M-0.83 -0.9 C12.79 -1.05, 65.63 2.76, 82.2 -0.07 C98.77 -2.9, 99.35 -11.24, 98.58 -17.88 C97.8 -24.51, 80.72 -32.75, 77.54 -39.89 C74.36 -47.02, 82.23 -54, 79.5 -60.7 C76.76 -67.39, 67.74 -77.39, 61.13 -80.05 C54.51 -82.72, 45.13 -79.61, 39.82 -76.68 C34.5 -73.75, 33.18 -64.01, 29.23 -62.47 C25.28 -60.94, 19.98 -68.08, 16.14 -67.49 C12.31 -66.91, 7.9 -62.76, 6.22 -58.96 C4.54 -55.16, 8.59 -47.62, 6.06 -44.71 C3.53 -41.8, -5.21 -44.38, -8.95 -41.49 C-12.69 -38.61, -15.42 -32.73, -16.38 -27.39 C-17.34 -22.05, -17.39 -13.9, -14.69 -9.47 C-11.99 -5.04, -2.59 -2.25, -0.18 -0.79 M0.94 1.24 C14.37 0.67, 65.08 1.19, 81.33 -1.81 C97.58 -4.81, 99.01 -10.59, 98.43 -16.77 C97.85 -22.94, 81.2 -31.65, 77.86 -38.87 C74.53 -46.08, 81.07 -53.57, 78.43 -60.05 C75.8 -66.53, 68.9 -75.33, 62.06 -77.75 C55.22 -80.17, 43.05 -77.16, 37.39 -74.58 C31.74 -72, 31.95 -63.2, 28.14 -62.24 C24.33 -61.29, 18.05 -69.31, 14.54 -68.86 C11.04 -68.4, 8.45 -63.13, 7.1 -59.5 C5.74 -55.87, 8.73 -50.06, 6.41 -47.08 C4.08 -44.09, -3.11 -44.77, -6.85 -41.59 C-10.58 -38.41, -14.57 -33.25, -15.99 -28 C-17.42 -22.74, -18.07 -14.41, -15.4 -10.04 C-12.72 -5.67, -2.62 -3.47, 0.05 -1.77" stroke="#1e1e1e" stroke-width="1" fill="none"></path></g></g><mask></mask><g stroke-linecap="round" transform="translate(917.9500608841611 373.4618909377579) rotate(0 67.16279069767438 56.5)"><path d="M28.25 0 C54.48 0.7, 81.23 4.44, 106.08 0 C123.94 -2.12, 135.74 10.36, 134.33 28.25 C137.4 49.51, 137.26 68.4, 134.33 84.75 C131.48 103.07, 126.51 112.57, 106.08 113 C77.66 117.18, 47.99 117.04, 28.25 113 C7.61 114.67, -0.32 101.79, 0 84.75 C-2.05 64.37, 1.3 44.98, 0 28.25 C0.77 12.57, 6.19 -2.88, 28.25 0" stroke="none" stroke-width="0" fill="#d2bab0"></path><path d="M28.25 0 C45.58 2.41, 62.66 0.71, 106.08 0 M28.25 0 C51.52 -0.95, 74.71 -0.66, 106.08 0 M106.08 0 C125.85 1.37, 134.97 8.43, 134.33 28.25 M106.08 0 C122.67 0.76, 135.89 8.49, 134.33 28.25 M134.33 28.25 C134.02 46.89, 135.4 66.26, 134.33 84.75 M134.33 28.25 C134.25 41.86, 134.59 55.18, 134.33 84.75 M134.33 84.75 C132.35 103.92, 123.49 114.82, 106.08 113 M134.33 84.75 C134.13 104.72, 125.76 115, 106.08 113 M106.08 113 C85.6 113.5, 69.15 115.04, 28.25 113 M106.08 113 C83.53 113.43, 58.78 112.25, 28.25 113 M28.25 113 C7.48 111.84, 1.45 101.65, 0 84.75 M28.25 113 C7.25 111.1, -0.85 104.83, 0 84.75 M0 84.75 C-0.22 68.26, -0.72 54.8, 0 28.25 M0 84.75 C-0.51 65.83, -0.72 45.69, 0 28.25 M0 28.25 C1.16 7.82, 10.63 1.18, 28.25 0 M0 28.25 C1.41 11.2, 7.24 1.06, 28.25 0" stroke="#1e1e1e" stroke-width="2" fill="none"></path></g><g transform="translate(935.2144140818355 391.6238308129706) rotate(0 49.8984375 38.33806012478729)"><text x="49.8984375" y="0" font-family="Cascadia, Segoe UI Emoji" font-size="21.29892229154851px" fill="#1e1e1e" text-anchor="middle" style="white-space: pre;" direction="ltr" dominant-baseline="text-before-edge">DN</text><text x="49.8984375" y="25.558706749858214" font-family="Cascadia, Segoe UI Emoji" font-size="21.29892229154851px" fill="#1e1e1e" text-anchor="middle" style="white-space: pre;" direction="ltr" dominant-baseline="text-before-edge">(Data </text><text x="49.8984375" y="51.11741349971643" font-family="Cascadia, Segoe UI Emoji" font-size="21.29892229154851px" fill="#1e1e1e" text-anchor="middle" style="white-space: pre;" direction="ltr" dominant-baseline="text-before-edge">Network)</text></g><g stroke-linecap="round"><g transform="translate(805.7573235818354 429.7980191740901) rotate(0 54 0.15811168817759835)"><path d="M-0.69 0.27 C17.47 0.41, 90.58 1.69, 108.73 1.52 M1.15 -0.63 C19.24 -0.86, 90.43 -0.08, 108.16 0.02" stroke="#1e1e1e" stroke-width="2" fill="none"></path></g><g transform="translate(805.7573235818354 429.7980191740901) rotate(0 54 0.15811168817759835)"><path d="M84.6 8.38 C91.56 7.4, 99.66 4.18, 108.16 0.02 M84.6 8.38 C90.37 6.49, 94.94 5.64, 108.16 0.02" stroke="#1e1e1e" stroke-width="2" fill="none"></path></g><g transform="translate(805.7573235818354 429.7980191740901) rotate(0 54 0.15811168817759835)"><path d="M84.74 -8.72 C91.76 -4.94, 99.82 -3.41, 108.16 0.02 M84.74 -8.72 C90.42 -7.05, 94.97 -4.33, 108.16 0.02" stroke="#1e1e1e" stroke-width="2" fill="none"></path></g></g><mask></mask></svg>