<svg version="1.1" xmlns="http://www.w3.org/2000/svg" viewBox="0 0 274.60597988671884 591" width="549.2119597734377" height="1182">
  <!-- svg-source:excalidraw -->
  
  <defs>
    <style class="style-fonts">
      @font-face {
        font-family: "Virgil";
        src: url("https://excalidraw.com/Virgil.woff2");
      }
      @font-face {
        font-family: "Cascadia";
        src: url("https://excalidraw.com/Cascadia.woff2");
      }
      @font-face {
        font-family: "Assistant";
        src: url("https://excalidraw.com/Assistant-Regular.woff2");
      }
    </style>
    
  </defs>
  <g stroke-linecap="round" transform="translate(26 501) rotate(0 75.5 32.5)"><path d="M16.25 0 C58.87 -3.82, 93.59 -3.27, 134.75 0 C148.51 -0.93, 153.75 8.96, 151 16.25 C153.15 24.31, 151.5 32.88, 151 48.75 C149.05 61.2, 144.34 67.21, 134.75 65 C95.65 60.69, 51.93 66.73, 16.25 65 C8.61 63.83, -2.66 57.87, 0 48.75 C3.12 41.45, -0.48 29.02, 0 16.25 C-1.25 2.71, 5.88 -1.52, 16.25 0" stroke="none" stroke-width="0" fill="#b2f2bb"></path><path d="M16.25 0 C55.01 -0.78, 94.73 -0.22, 134.75 0 M16.25 0 C60.67 0.73, 107.25 0.99, 134.75 0 M134.75 0 C144.34 -1.7, 152.97 5.96, 151 16.25 M134.75 0 C147.15 -0.66, 151.92 3.85, 151 16.25 M151 16.25 C151.76 24.53, 150.69 31.73, 151 48.75 M151 16.25 C151.09 28.98, 151.61 40.41, 151 48.75 M151 48.75 C150.85 60.05, 146.5 66.83, 134.75 65 M151 48.75 C149.77 58.62, 146.47 62.92, 134.75 65 M134.75 65 C106.32 64.74, 76.12 65.71, 16.25 65 M134.75 65 C99.61 63.99, 65.25 63.58, 16.25 65 M16.25 65 C5.98 63.12, 1.13 58, 0 48.75 M16.25 65 C4.15 65.23, -0.65 61.4, 0 48.75 M0 48.75 C-0.82 36.07, -0.81 28.79, 0 16.25 M0 48.75 C-0.99 37.77, -1.17 24.41, 0 16.25 M0 16.25 C-1.86 6.19, 7.25 -1.63, 16.25 0 M0 16.25 C-1.85 4.58, 5.01 0.41, 16.25 0" stroke="#1e1e1e" stroke-width="2" fill="none"></path></g><g transform="translate(84.22001647949219 521) rotate(0 17.279983520507812 12.5)"><text x="17.279983520507812" y="0" font-family="Virgil, Segoe UI Emoji" font-size="20px" fill="#1e1e1e" text-anchor="middle" style="white-space: pre;" direction="ltr" dominant-baseline="text-before-edge">PHY</text></g><g stroke-linecap="round" transform="translate(26 421.5) rotate(0 75.5 32.5)"><path d="M16.25 0 C49.31 2.73, 84.24 -3.07, 134.75 0 C142.27 1.25, 153.02 6.74, 151 16.25 C154.54 22.69, 149.53 37.88, 151 48.75 C152.87 61.03, 146.44 63.12, 134.75 65 C104.02 64.75, 64.8 63.48, 16.25 65 C4.42 67.42, -0.95 57.05, 0 48.75 C-2.98 39.67, 2.16 27.3, 0 16.25 C-2.95 5.41, 8.6 -1.62, 16.25 0" stroke="none" stroke-width="0" fill="#ffec99"></path><path d="M16.25 0 C57.37 -1.22, 97.32 1.53, 134.75 0 M16.25 0 C46.83 -1.25, 79.93 -1.46, 134.75 0 M134.75 0 C146.09 1.69, 152.77 4.76, 151 16.25 M134.75 0 C143.89 -1.09, 150.91 3.57, 151 16.25 M151 16.25 C150.71 26.45, 150.55 35.68, 151 48.75 M151 16.25 C150.6 26.47, 150.27 37.06, 151 48.75 M151 48.75 C150.48 59.66, 145.69 64.88, 134.75 65 M151 48.75 C152.22 58.33, 147.6 65.48, 134.75 65 M134.75 65 C109.91 64.6, 86.94 64.36, 16.25 65 M134.75 65 C92.49 66.68, 49.75 66.1, 16.25 65 M16.25 65 C5.42 66.41, 1.98 61.56, 0 48.75 M16.25 65 C3.15 64.22, 0.27 61.87, 0 48.75 M0 48.75 C-0.51 37.16, -1.13 26.91, 0 16.25 M0 48.75 C0.24 42.25, 1.11 36.26, 0 16.25 M0 16.25 C-1.35 7.16, 6.18 1.3, 16.25 0 M0 16.25 C2.01 4.79, 6.25 1.93, 16.25 0" stroke="#1e1e1e" stroke-width="2" fill="none"></path></g><g transform="translate(80.84001159667969 441.5) rotate(0 20.659988403320312 12.5)"><text x="20.659988403320312" y="0" font-family="Virgil, Segoe UI Emoji" font-size="20px" fill="#1e1e1e" text-anchor="middle" style="white-space: pre;" direction="ltr" dominant-baseline="text-before-edge">MAC</text></g><g stroke-linecap="round" transform="translate(26 342) rotate(0 75.5 32.5)"><path d="M16.25 0 C47.9 -2.9, 84.36 2.2, 134.75 0 C147.56 -2.99, 149.16 5.8, 151 16.25 C153.87 26.35, 147.73 38.39, 151 48.75 C148.58 57.1, 146.72 63.65, 134.75 65 C108.18 62.11, 78.87 63.55, 16.25 65 C8.15 65.65, -2.41 58.3, 0 48.75 C3.37 38.58, -3.79 32.67, 0 16.25 C2.39 8.05, 3.69 0.39, 16.25 0" stroke="none" stroke-width="0" fill="#ffec99"></path><path d="M16.25 0 C59.48 0.68, 101.46 1.47, 134.75 0 M16.25 0 C49.84 -1.39, 83.45 -1.3, 134.75 0 M134.75 0 C146.78 0.32, 152.49 5.74, 151 16.25 M134.75 0 C143.81 -0.56, 149.73 6.66, 151 16.25 M151 16.25 C150.87 22.73, 150.11 31.8, 151 48.75 M151 16.25 C151.47 26.21, 150.81 34.89, 151 48.75 M151 48.75 C149.64 58.73, 143.78 63.45, 134.75 65 M151 48.75 C151.39 59.53, 143.58 64.42, 134.75 65 M134.75 65 C94.1 65.89, 53.5 64.3, 16.25 65 M134.75 65 C94.13 65.34, 52.78 66.97, 16.25 65 M16.25 65 C4.46 63.42, 1.72 61.15, 0 48.75 M16.25 65 C7.16 66.11, 1.9 58.99, 0 48.75 M0 48.75 C0.44 40.64, -0.58 27.91, 0 16.25 M0 48.75 C0.72 35.75, 0.74 23.99, 0 16.25 M0 16.25 C1.86 5.12, 7.3 -0.58, 16.25 0 M0 16.25 C-2.22 3.82, 4.63 1.8, 16.25 0" stroke="#1e1e1e" stroke-width="2" fill="none"></path></g><g transform="translate(82.29000854492188 362) rotate(0 19.209991455078125 12.5)"><text x="19.209991455078125" y="0" font-family="Virgil, Segoe UI Emoji" font-size="20px" fill="#1e1e1e" text-anchor="middle" style="white-space: pre;" direction="ltr" dominant-baseline="text-before-edge">RLC</text></g><g stroke-linecap="round" transform="translate(26 262.5) rotate(0 75.5 32.5)"><path d="M16.25 0 C42.85 1.62, 70.44 2.02, 134.75 0 C148.22 3.17, 151.38 7.09, 151 16.25 C147.12 25.32, 151.88 39.97, 151 48.75 C153.02 56.22, 144.41 65.64, 134.75 65 C111.77 66.99, 88.07 63.5, 16.25 65 C8.01 66.11, -1.71 61.84, 0 48.75 C2.3 40.17, -2.15 32.08, 0 16.25 C-2.57 6.5, 4.9 -1.15, 16.25 0" stroke="none" stroke-width="0" fill="#ffec99"></path><path d="M16.25 0 C61.88 0.17, 104.33 -1.29, 134.75 0 M16.25 0 C53.92 -1.16, 90.48 -1.13, 134.75 0 M134.75 0 C146.18 0.56, 152.17 4.31, 151 16.25 M134.75 0 C146.35 -2.22, 151.52 6.14, 151 16.25 M151 16.25 C149.25 26.84, 151.04 34.97, 151 48.75 M151 16.25 C150.09 25.76, 151.21 35.98, 151 48.75 M151 48.75 C151.57 59.14, 147.55 63.25, 134.75 65 M151 48.75 C151.01 60.85, 147.01 64.39, 134.75 65 M134.75 65 C90.04 65.81, 50.33 63.42, 16.25 65 M134.75 65 C101.29 65.15, 69.59 63.48, 16.25 65 M16.25 65 C3.88 64.78, -1.21 60.57, 0 48.75 M16.25 65 C3.18 65.51, -1.93 61.77, 0 48.75 M0 48.75 C-1.27 37.1, -0.08 22.01, 0 16.25 M0 48.75 C0.18 38.68, 0.04 27.67, 0 16.25 M0 16.25 C-0.29 4.37, 7.19 -1.42, 16.25 0 M0 16.25 C-0.31 6.78, 7.21 -1.65, 16.25 0" stroke="#1e1e1e" stroke-width="2" fill="none"></path></g><g transform="translate(74.04002380371094 282.5) rotate(0 27.459976196289062 12.5)"><text x="27.459976196289062" y="0" font-family="Virgil, Segoe UI Emoji" font-size="20px" fill="#1e1e1e" text-anchor="middle" style="white-space: pre;" direction="ltr" dominant-baseline="text-before-edge">PDCP</text></g><g stroke-linecap="round" transform="translate(25 103.5) rotate(0 75.5 32.5)"><path d="M16.25 0 C55.32 -0.11, 88.38 0.22, 134.75 0 C146.84 1.42, 148.49 4.02, 151 16.25 C149.22 24.67, 148.46 30.56, 151 48.75 C148.57 57.97, 142.55 65.73, 134.75 65 C97.57 64.52, 58.88 66.13, 16.25 65 C4.21 62.54, 0.68 62.03, 0 48.75 C1.94 40.05, 0.14 35.9, 0 16.25 C-0.26 4.88, 4.96 2.72, 16.25 0" stroke="none" stroke-width="0" fill="#a5d8ff"></path><path d="M16.25 0 C50.32 2.23, 81.26 0.91, 134.75 0 M16.25 0 C57.74 -0.92, 99.95 0.95, 134.75 0 M134.75 0 C146.28 0.58, 150.5 5.08, 151 16.25 M134.75 0 C144.4 -1.62, 149.41 5.19, 151 16.25 M151 16.25 C149.14 24.66, 151.22 32.05, 151 48.75 M151 16.25 C151.78 28.43, 151.77 38.11, 151 48.75 M151 48.75 C151.28 60.88, 144.93 66.57, 134.75 65 M151 48.75 C152.41 60.1, 145.41 66.16, 134.75 65 M134.75 65 C93.4 67.54, 56.06 66.07, 16.25 65 M134.75 65 C99.83 65.91, 64.26 66.32, 16.25 65 M16.25 65 C4.9 66.42, 1.41 60.26, 0 48.75 M16.25 65 C6.49 65.38, -2.26 57.86, 0 48.75 M0 48.75 C1.74 39.86, -1.93 33.62, 0 16.25 M0 48.75 C0.01 42.41, -0.7 35.39, 0 16.25 M0 16.25 C0.03 5.69, 7.21 0.47, 16.25 0 M0 16.25 C0.51 5.48, 7.3 -1.68, 16.25 0" stroke="#1e1e1e" stroke-width="2" fill="none"></path></g><g transform="translate(80.50000762939453 123.5) rotate(0 19.99999237060547 12.5)"><text x="19.99999237060547" y="0" font-family="Virgil, Segoe UI Emoji" font-size="20px" fill="#1e1e1e" text-anchor="middle" style="white-space: pre;" direction="ltr" dominant-baseline="text-before-edge">RRC</text></g><g stroke-linecap="round" transform="translate(25 24) rotate(0 75.5 32.5)"><path d="M16.25 0 C52.34 -2.87, 90.69 0.46, 134.75 0 C147.05 2.96, 151.86 1.88, 151 16.25 C152.97 28.22, 152.21 40.31, 151 48.75 C149.85 62, 145.97 64.57, 134.75 65 C87.83 63.87, 47.86 66.43, 16.25 65 C7.65 66.51, 2.93 56.42, 0 48.75 C-0.19 37.77, 2.31 21.96, 0 16.25 C-1.66 8.2, 3.46 -1.4, 16.25 0" stroke="none" stroke-width="0" fill="#a5d8ff"></path><path d="M16.25 0 C60.34 -0.34, 102.71 -0.44, 134.75 0 M16.25 0 C60.8 0.76, 104.37 0.06, 134.75 0 M134.75 0 C147.02 1.47, 150.2 7.39, 151 16.25 M134.75 0 C144.92 -0.22, 151.9 7.53, 151 16.25 M151 16.25 C151.13 27.04, 151.1 39.06, 151 48.75 M151 16.25 C151.92 24.01, 151.91 31.96, 151 48.75 M151 48.75 C152.73 58.87, 144.82 65.76, 134.75 65 M151 48.75 C150.32 59.73, 147.41 63.47, 134.75 65 M134.75 65 C102.27 66.9, 68.83 67.17, 16.25 65 M134.75 65 C95.84 64.55, 56.15 64.67, 16.25 65 M16.25 65 C5.62 63.86, -1.59 58.94, 0 48.75 M16.25 65 C6.41 65.71, -0.91 60.41, 0 48.75 M0 48.75 C-1.41 41.93, -1.93 35.22, 0 16.25 M0 48.75 C0.02 42.16, -1.17 35.02, 0 16.25 M0 16.25 C1.71 6.69, 5.6 -1.21, 16.25 0 M0 16.25 C2.03 5.84, 7.72 -0.88, 16.25 0" stroke="#1e1e1e" stroke-width="2" fill="none"></path></g><g transform="translate(81.42001342773438 44) rotate(0 19.079986572265625 12.5)"><text x="19.079986572265625" y="0" font-family="Virgil, Segoe UI Emoji" font-size="20px" fill="#1e1e1e" text-anchor="middle" style="white-space: pre;" direction="ltr" dominant-baseline="text-before-edge">NAS</text></g><g stroke-linecap="round" transform="translate(26 183) rotate(0 75.5 32.5)"><path d="M16.25 0 C64.76 -1.62, 103.92 -0.42, 134.75 0 C147.87 -0.45, 149.89 2.56, 151 16.25 C153.19 19.93, 153.72 28.59, 151 48.75 C147.86 58.77, 146.77 68.5, 134.75 65 C108.55 65.56, 80.72 66.02, 16.25 65 C4.73 62.78, -0.45 62.19, 0 48.75 C-1.58 43.01, -2.42 34.04, 0 16.25 C1.62 7.42, 5.32 2.64, 16.25 0" stroke="none" stroke-width="0" fill="#ffec99"></path><path d="M16.25 0 C50.96 -1.54, 84.51 -0.92, 134.75 0 M16.25 0 C43.71 0.76, 70.58 1.8, 134.75 0 M134.75 0 C146.73 -0.11, 151.61 4.1, 151 16.25 M134.75 0 C147.45 1.34, 151.05 3.52, 151 16.25 M151 16.25 C151.77 26.76, 151.45 40.43, 151 48.75 M151 16.25 C152.16 23.68, 151.84 29.64, 151 48.75 M151 48.75 C151.13 59.21, 147.52 64.02, 134.75 65 M151 48.75 C152.22 59.06, 145.75 63.29, 134.75 65 M134.75 65 C108.24 64.14, 78.66 65.64, 16.25 65 M134.75 65 C89.56 65.12, 42.28 65.24, 16.25 65 M16.25 65 C5.67 65.83, 1.37 61.26, 0 48.75 M16.25 65 C5.8 62.74, -2.08 59.42, 0 48.75 M0 48.75 C-1.07 41.3, -0.39 29.79, 0 16.25 M0 48.75 C-0.41 40.15, 0.43 32.12, 0 16.25 M0 16.25 C0.18 5.11, 6.75 -0.35, 16.25 0 M0 16.25 C1.71 6.05, 5.12 -0.72, 16.25 0" stroke="#1e1e1e" stroke-width="2" fill="none"></path></g><g transform="translate(74.45001983642578 203) rotate(0 27.04998016357422 12.5)"><text x="27.04998016357422" y="0" font-family="Virgil, Segoe UI Emoji" font-size="20px" fill="#1e1e1e" text-anchor="middle" style="white-space: pre;" direction="ltr" dominant-baseline="text-before-edge">SDAP</text></g><g stroke-linecap="round" transform="translate(10 491) rotate(0 90.5 45)"><path d="M22.5 0 C59.13 0.72, 97.32 -0.36, 158.5 0 M158.5 0 C174.76 0.6, 180.3 8.59, 181 22.5 M181 22.5 C182.49 36.45, 179.16 51.14, 181 67.5 M181 67.5 C179.65 84.01, 174.94 88.25, 158.5 90 M158.5 90 C116.47 88.8, 72.9 88.93, 22.5 90 M22.5 90 C7.48 89.38, 0.3 83.54, 0 67.5 M0 67.5 C1.76 56.19, 0.12 48.12, 0 22.5 M0 22.5 C0.89 7.01, 8.73 -0.52, 22.5 0" stroke="#1e1e1e" stroke-width="2.5" fill="none" stroke-dasharray="1.5 8"></path></g><g stroke-linecap="round" transform="translate(10 177.5) rotate(0 90.5 156.75)"><path d="M32 0 C72.22 -0.54, 114.16 0.61, 149 0 M149 0 C168.77 -0.63, 182.87 9.34, 181 32 M181 32 C180.36 115.25, 180.83 197.63, 181 281.5 M181 281.5 C179.35 303.02, 171.94 313.69, 149 313.5 M149 313.5 C115.81 312.05, 81.35 313.35, 32 313.5 M32 313.5 C11.84 311.55, 0.7 302.24, 0 281.5 M0 281.5 C0.2 184.94, -0.02 90.21, 0 32 M0 32 C-0.25 10.87, 9.95 -0.27, 32 0" stroke="#1e1e1e" stroke-width="2.5" fill="none" stroke-dasharray="1.5 8"></path></g><g stroke-linecap="round" transform="translate(10 10) rotate(0 90.5 83.75)"><path d="M32 0 C74.42 0.47, 116.57 0.77, 149 0 M149 0 C171.93 0.53, 179.67 9.94, 181 32 M181 32 C181.62 55.22, 179.95 80.37, 181 135.5 M181 135.5 C179.86 158.08, 168.97 165.9, 149 167.5 M149 167.5 C121.56 169.81, 93.33 169.69, 32 167.5 M32 167.5 C9.77 165.5, -1.22 155.69, 0 135.5 M0 135.5 C-0.55 101.35, 0.76 66.44, 0 32 M0 32 C0.33 10.43, 10.17 1.77, 32 0" stroke="#1e1e1e" stroke-width="2.5" fill="none" stroke-dasharray="1.5 8"></path></g><g transform="translate(218.52599299999997 71.25) rotate(0 23.039993286132812 22.5)"><text x="0" y="0" font-family="Virgil, Segoe UI Emoji" font-size="36px" fill="#1e1e1e" text-anchor="start" style="white-space: pre;" direction="ltr" dominant-baseline="text-before-edge">L3</text></g><g transform="translate(217.4099960000001 311.75) rotate(0 23.597991943359375 22.5)"><text x="0" y="0" font-family="Virgil, Segoe UI Emoji" font-size="36px" fill="#1e1e1e" text-anchor="start" style="white-space: pre;" direction="ltr" dominant-baseline="text-before-edge">L2</text></g><g transform="translate(225.3479920000002 513.5) rotate(0 15.659996032714844 22.5)"><text x="0" y="0" font-family="Virgil, Segoe UI Emoji" font-size="36px" fill="#1e1e1e" text-anchor="start" style="white-space: pre;" direction="ltr" dominant-baseline="text-before-edge">L1</text></g></svg>