<svg version="1.1" xmlns="http://www.w3.org/2000/svg" viewBox="0 0 442.4333343505855 352" width="884.866668701171" height="704">
  <!-- svg-source:excalidraw -->
  
  <defs>
    <style class="style-fonts">
      @font-face {
        font-family: "Virgil";
        src: url("https://excalidraw.com/Virgil.woff2");
      }
      @font-face {
        font-family: "Cascadia";
        src: url("https://excalidraw.com/Cascadia.woff2");
      }
      @font-face {
        font-family: "Assistant";
        src: url("https://excalidraw.com/Assistant-Regular.woff2");
      }
    </style>
    
  </defs>
  <rect x="0" y="0" width="442.4333343505855" height="352" fill="#ffffff"></rect><g stroke-linecap="round"><g transform="translate(39.10527622143536 46) rotate(0 187.00152868310545 0)"><path d="M0.74 0.65 C63.05 0.78, 312.87 0.19, 374.9 0.23 M-0.33 -0.05 C61.81 -0.26, 311.83 -1.61, 374.43 -1.77" stroke="#1e1e1e" stroke-width="2" fill="none"></path></g><g transform="translate(39.10527622143536 46) rotate(0 187.00152868310545 0)"><path d="M350.97 6.88 C361.14 4.9, 369.47 -1.72, 374.43 -1.77 M350.97 6.88 C360.55 3.58, 368.89 1.15, 374.43 -1.77" stroke="#1e1e1e" stroke-width="2" fill="none"></path></g><g transform="translate(39.10527622143536 46) rotate(0 187.00152868310545 0)"><path d="M350.9 -10.22 C361.01 -5.61, 369.37 -5.65, 374.43 -1.77 M350.9 -10.22 C360.38 -7.16, 368.75 -3.21, 374.43 -1.77" stroke="#1e1e1e" stroke-width="2" fill="none"></path></g></g><mask></mask><g stroke-linecap="round"><g transform="translate(406.19201486744464 82.5511450490082) rotate(0 -187.0000000000049 0)"><path d="M0.21 0.5 C-62.09 0.74, -312.06 0.48, -374.27 0.36 M-1.14 -0.28 C-63.58 -0.33, -313.33 -1.79, -375.36 -1.58" stroke="#1e1e1e" stroke-width="2" fill="none"></path></g><g transform="translate(406.19201486744464 82.5511450490082) rotate(0 -187.0000000000049 0)"><path d="M-351.85 -10.09 C-357.17 -8.29, -363.51 -4.01, -375.36 -1.58 M-351.85 -10.09 C-359.18 -8.6, -364.36 -6.24, -375.36 -1.58" stroke="#1e1e1e" stroke-width="2" fill="none"></path></g><g transform="translate(406.19201486744464 82.5511450490082) rotate(0 -187.0000000000049 0)"><path d="M-351.88 7.01 C-357.05 4.38, -363.37 4.23, -375.36 -1.58 M-351.88 7.01 C-359.33 3.68, -364.5 1.23, -375.36 -1.58" stroke="#1e1e1e" stroke-width="2" fill="none"></path></g></g><mask></mask><g stroke-linecap="round"><g transform="translate(36.03900863043668 118.2041728131324) rotate(0 189.5 0)"><path d="M-0.55 0.18 C62.45 0.03, 315.37 -0.69, 378.62 -0.74 M1.37 -0.78 C64.12 -0.79, 314.68 0.09, 377.47 0.41" stroke="#1e1e1e" stroke-width="2" fill="none"></path></g><g transform="translate(36.03900863043668 118.2041728131324) rotate(0 189.5 0)"><path d="M353.94 8.87 C362.5 5.36, 369.26 2.89, 377.47 0.41 M353.94 8.87 C361.45 5.69, 367.64 4.31, 377.47 0.41" stroke="#1e1e1e" stroke-width="2" fill="none"></path></g><g transform="translate(36.03900863043668 118.2041728131324) rotate(0 189.5 0)"><path d="M354.01 -8.24 C362.57 -5.72, 369.3 -2.18, 377.47 0.41 M354.01 -8.24 C361.58 -6.43, 367.75 -2.84, 377.47 0.41" stroke="#1e1e1e" stroke-width="2" fill="none"></path></g></g><mask></mask><g stroke-linecap="round"><g transform="translate(413.1226899102346 154.75531786214066) rotate(0 -189.5000000000049 0)"><path d="M-0.38 -0.74 C-63.47 -0.78, -316.08 -0.38, -379.08 -0.11 M1.62 1.49 C-61.59 1.62, -316.66 1.78, -380.07 1.38" stroke="#1e1e1e" stroke-width="2" fill="none"></path></g><g transform="translate(413.1226899102346 154.75531786214066) rotate(0 -189.5000000000049 0)"><path d="M-356.56 -7.12 C-363.76 -5.17, -368.69 -1.9, -380.07 1.38 M-356.56 -7.12 C-365.31 -3.51, -374.11 -1.76, -380.07 1.38" stroke="#1e1e1e" stroke-width="2" fill="none"></path></g><g transform="translate(413.1226899102346 154.75531786214066) rotate(0 -189.5000000000049 0)"><path d="M-356.6 9.98 C-363.82 7.58, -368.74 6.5, -380.07 1.38 M-356.6 9.98 C-365.45 7.16, -374.24 2.47, -380.07 1.38" stroke="#1e1e1e" stroke-width="2" fill="none"></path></g></g><mask></mask><g stroke-linecap="round"><g transform="translate(37.32029712714666 190.84399345133426) rotate(0 189.5 0)"><path d="M-0.4 0.41 C63.03 0.4, 316.83 0.53, 380.18 0.47 M1.59 -0.42 C65 -0.84, 316.91 -1.7, 379.85 -1.41" stroke="#1e1e1e" stroke-width="2" fill="none"></path></g><g transform="translate(37.32029712714666 190.84399345133426) rotate(0 189.5 0)"><path d="M356.36 7.14 C363.26 6.91, 369.61 3.8, 379.85 -1.41 M356.36 7.14 C363.27 3.68, 370.46 2.8, 379.85 -1.41" stroke="#1e1e1e" stroke-width="2" fill="none"></path></g><g transform="translate(37.32029712714666 190.84399345133426) rotate(0 189.5 0)"><path d="M356.36 -9.96 C363.34 -5.64, 369.68 -4.2, 379.85 -1.41 M356.36 -9.96 C363.35 -8.29, 370.54 -4.03, 379.85 -1.41" stroke="#1e1e1e" stroke-width="2" fill="none"></path></g></g><mask></mask><g stroke-linecap="round"><g transform="translate(414.40397840694504 227.3951385003424) rotate(0 -189.5000000000049 0)"><path d="M1.18 0.47 C-61.81 0.4, -315.05 -0.04, -378.32 0 M0.34 -0.33 C-62.71 -0.23, -315.71 1.69, -378.91 1.54" stroke="#1e1e1e" stroke-width="2" fill="none"></path></g><g transform="translate(414.40397840694504 227.3951385003424) rotate(0 -189.5000000000049 0)"><path d="M-355.45 -7.08 C-360.89 -3.42, -367.91 -1.3, -378.91 1.54 M-355.45 -7.08 C-363.95 -3.19, -372.35 -0.63, -378.91 1.54" stroke="#1e1e1e" stroke-width="2" fill="none"></path></g><g transform="translate(414.40397840694504 227.3951385003424) rotate(0 -189.5000000000049 0)"><path d="M-355.39 10.02 C-360.91 9.12, -367.94 6.7, -378.91 1.54 M-355.39 10.02 C-363.89 7.71, -372.31 4.05, -378.91 1.54" stroke="#1e1e1e" stroke-width="2" fill="none"></path></g></g><mask></mask><g stroke-linecap="round"><g transform="translate(39.250972169937086 263.0481662644667) rotate(0 189.5 0)"><path d="M0.68 0 C63.75 0.05, 316.55 0.91, 379.58 0.75 M-0.42 -1.04 C62.43 -1.37, 315.86 -1.14, 378.93 -0.97" stroke="#1e1e1e" stroke-width="2" fill="none"></path></g><g transform="translate(39.250972169937086 263.0481662644667) rotate(0 189.5 0)"><path d="M355.43 7.54 C364.77 4.98, 375.38 0.41, 378.93 -0.97 M355.43 7.54 C360.86 5.77, 366.51 3.82, 378.93 -0.97" stroke="#1e1e1e" stroke-width="2" fill="none"></path></g><g transform="translate(39.250972169937086 263.0481662644667) rotate(0 189.5 0)"><path d="M355.45 -9.56 C364.85 -5.31, 375.45 -3.07, 378.93 -0.97 M355.45 -9.56 C360.88 -7.48, 366.53 -5.57, 378.93 -0.97" stroke="#1e1e1e" stroke-width="2" fill="none"></path></g></g><mask></mask><g stroke-linecap="round"><g transform="translate(416.334653449735 299.5993113134749) rotate(0 -189.5000000000049 0)"><path d="M0.58 0.75 C-62.73 0.6, -315.87 -0.96, -379.13 -0.9 M-0.58 0.11 C-64.11 0.08, -316.96 0.29, -380.15 0.17" stroke="#1e1e1e" stroke-width="2" fill="none"></path></g><g transform="translate(416.334653449735 299.5993113134749) rotate(0 -189.5000000000049 0)"><path d="M-356.65 -8.37 C-363.78 -5.43, -374.91 -2.12, -380.15 0.17 M-356.65 -8.37 C-365.4 -4.59, -374.82 -2.22, -380.15 0.17" stroke="#1e1e1e" stroke-width="2" fill="none"></path></g><g transform="translate(416.334653449735 299.5993113134749) rotate(0 -189.5000000000049 0)"><path d="M-356.66 8.73 C-363.78 5.57, -374.91 2.78, -380.15 0.17 M-356.66 8.73 C-365.43 5.78, -374.85 1.41, -380.15 0.17" stroke="#1e1e1e" stroke-width="2" fill="none"></path></g></g><mask></mask><g transform="translate(205.10833358764626 317) rotate(0 18.875 12.5)"><text x="0" y="17.52" font-family="Virgil, Segoe UI Emoji" font-size="20px" fill="#1e1e1e" text-anchor="start" style="white-space: pre;" direction="ltr" dominant-baseline="alphabetic">etc.</text></g><g transform="translate(19.28127658764629 10) rotate(0 6.883333206176758 12.5)"><text x="0" y="17.52" font-family="Virgil, Segoe UI Emoji" font-size="20px" fill="#1e1e1e" text-anchor="start" style="white-space: pre;" direction="ltr" dominant-baseline="alphabetic">0</text></g><g transform="translate(414.01019638146954 10) rotate(0 8.891666412353516 12.5)"><text x="0" y="17.52" font-family="Virgil, Segoe UI Emoji" font-size="20px" fill="#1e1e1e" text-anchor="start" style="white-space: pre;" direction="ltr" dominant-baseline="alphabetic">15</text></g><g transform="translate(414.2166671752925 66.5) rotate(0 9.108333587646484 12.5)"><text x="0" y="17.52" font-family="Virgil, Segoe UI Emoji" font-size="20px" fill="#1e1e1e" text-anchor="start" style="white-space: pre;" direction="ltr" dominant-baseline="alphabetic">16</text></g><g transform="translate(10 63.5) rotate(0 9.516666412353516 12.5)"><text x="0" y="17.52" font-family="Virgil, Segoe UI Emoji" font-size="20px" fill="#1e1e1e" text-anchor="start" style="white-space: pre;" direction="ltr" dominant-baseline="alphabetic">31</text></g></svg>