<svg version="1.1" xmlns="http://www.w3.org/2000/svg" viewBox="0 0 617.3786615818358 617.3786615818356" width="1234.7573231636716" height="1234.7573231636711">
  <!-- svg-source:excalidraw -->
  
  <defs>
    <style class="style-fonts">
      @font-face {
        font-family: "Virgil";
        src: url("https://excalidraw.com/Virgil.woff2");
      }
      @font-face {
        font-family: "Cascadia";
        src: url("https://excalidraw.com/Cascadia.woff2");
      }
      @font-face {
        font-family: "Assistant";
        src: url("https://excalidraw.com/Assistant-Regular.woff2");
      }
    </style>
    
  </defs>
  <rect x="0" y="0" width="617.3786615818358" height="617.3786615818356" fill="#ffffff"></rect><g stroke-opacity="0" fill-opacity="0" stroke-linecap="round" transform="translate(490.62133841816444 91.62133841816438) rotate(0 58.37866158183567 58.378661581835615)"><path d="M116.76 58.38 C116.76 60.72, 116.61 63.09, 116.33 65.42 C116.05 67.74, 115.62 70.07, 115.06 72.35 C114.5 74.63, 113.8 76.89, 112.96 79.08 C112.13 81.27, 111.16 83.43, 110.07 85.51 C108.98 87.59, 107.76 89.61, 106.42 91.54 C105.09 93.47, 103.63 95.34, 102.08 97.09 C100.52 98.85, 98.85 100.52, 97.09 102.08 C95.34 103.63, 93.47 105.09, 91.54 106.42 C89.61 107.76, 87.59 108.98, 85.51 110.07 C83.43 111.16, 81.27 112.13, 79.08 112.96 C76.89 113.8, 74.63 114.5, 72.35 115.06 C70.07 115.62, 67.74 116.05, 65.42 116.33 C63.09 116.61, 60.72 116.76, 58.38 116.76 C56.03 116.76, 53.67 116.61, 51.34 116.33 C49.01 116.05, 46.69 115.62, 44.41 115.06 C42.13 114.5, 39.87 113.8, 37.68 112.96 C35.48 112.13, 33.33 111.16, 31.25 110.07 C29.17 108.98, 27.15 107.76, 25.22 106.42 C23.29 105.09, 21.42 103.63, 19.67 102.08 C17.91 100.52, 16.24 98.85, 14.68 97.09 C13.13 95.34, 11.67 93.47, 10.33 91.54 C9 89.61, 7.78 87.59, 6.69 85.51 C5.6 83.43, 4.63 81.27, 3.79 79.08 C2.96 76.89, 2.26 74.63, 1.7 72.35 C1.14 70.07, 0.71 67.74, 0.43 65.42 C0.14 63.09, 0 60.72, 0 58.38 C0 56.03, 0.14 53.67, 0.43 51.34 C0.71 49.01, 1.14 46.69, 1.7 44.41 C2.26 42.13, 2.96 39.87, 3.79 37.68 C4.63 35.48, 5.6 33.33, 6.69 31.25 C7.78 29.17, 9 27.15, 10.33 25.22 C11.67 23.29, 13.13 21.42, 14.68 19.67 C16.24 17.91, 17.91 16.24, 19.67 14.68 C21.42 13.13, 23.29 11.67, 25.22 10.33 C27.15 9, 29.17 7.78, 31.25 6.69 C33.33 5.6, 35.48 4.63, 37.68 3.79 C39.87 2.96, 42.13 2.26, 44.41 1.7 C46.69 1.14, 49.01 0.71, 51.34 0.43 C53.67 0.14, 56.03 0, 58.38 0 C60.72 0, 63.09 0.14, 65.42 0.43 C67.74 0.71, 70.07 1.14, 72.35 1.7 C74.63 2.26, 76.89 2.96, 79.08 3.79 C81.27 4.63, 83.43 5.6, 85.51 6.69 C87.59 7.78, 89.61 9, 91.54 10.33 C93.47 11.67, 95.34 13.13, 97.09 14.68 C98.85 16.24, 100.52 17.91, 102.08 19.67 C103.63 21.42, 105.09 23.29, 106.42 25.22 C107.76 27.15, 108.98 29.17, 110.07 31.25 C111.16 33.33, 112.13 35.48, 112.96 37.68 C113.8 39.87, 114.5 42.13, 115.06 44.41 C115.62 46.69, 116.05 49.01, 116.33 51.34 C116.61 53.67, 116.76 56.03, 116.76 58.38" stroke="#1e1e1e" stroke-width="1" fill="none"></path></g><g stroke-linecap="round" transform="translate(520.3868839459433 108.91484092628417) rotate(0 29.07051933023172 19.380346220154507)"><path d="M9.69 0 C18.34 0, 26.99 0, 48.45 0 M9.69 0 C18.85 0, 28.01 0, 48.45 0 M48.45 0 C54.91 0, 58.14 3.23, 58.14 9.69 M48.45 0 C54.91 0, 58.14 3.23, 58.14 9.69 M58.14 9.69 C58.14 16.22, 58.14 22.75, 58.14 29.07 M58.14 9.69 C58.14 14.93, 58.14 20.17, 58.14 29.07 M58.14 29.07 C58.14 35.53, 54.91 38.76, 48.45 38.76 M58.14 29.07 C58.14 35.53, 54.91 38.76, 48.45 38.76 M48.45 38.76 C38.31 38.76, 28.17 38.76, 9.69 38.76 M48.45 38.76 C35.18 38.76, 21.91 38.76, 9.69 38.76 M9.69 38.76 C3.23 38.76, 0 35.53, 0 29.07 M9.69 38.76 C3.23 38.76, 0 35.53, 0 29.07 M0 29.07 C0 23.4, 0 17.74, 0 9.69 M0 29.07 C0 23.78, 0 18.49, 0 9.69 M0 9.69 C0 3.23, 3.23 0, 9.69 0 M0 9.69 C0 3.23, 3.23 0, 9.69 0" stroke="#1e1e1e" stroke-width="1" fill="none"></path></g><g stroke-linecap="round" transform="translate(514.8415750915751 151.98980624310826) rotate(0 34.15842490842488 4.6756779342329935)"><path d="M2.34 0 C15.72 0, 29.11 0, 65.98 0 M2.34 0 C21.47 0, 40.61 0, 65.98 0 M65.98 0 C67.54 0, 68.32 0.78, 68.32 2.34 M65.98 0 C67.54 0, 68.32 0.78, 68.32 2.34 M68.32 2.34 C68.32 3.45, 68.32 4.57, 68.32 7.01 M68.32 2.34 C68.32 4.2, 68.32 6.06, 68.32 7.01 M68.32 7.01 C68.32 8.57, 67.54 9.35, 65.98 9.35 M68.32 7.01 C68.32 8.57, 67.54 9.35, 65.98 9.35 M65.98 9.35 C49.55 9.35, 33.13 9.35, 2.34 9.35 M65.98 9.35 C42.16 9.35, 18.34 9.35, 2.34 9.35 M2.34 9.35 C0.78 9.35, 0 8.57, 0 7.01 M2.34 9.35 C0.78 9.35, 0 8.57, 0 7.01 M0 7.01 C0 5.89, 0 4.76, 0 2.34 M0 7.01 C0 5.76, 0 4.5, 0 2.34 M0 2.34 C0 0.78, 0.78 0, 2.34 0 M0 2.34 C0 0.78, 0.78 0, 2.34 0" stroke="#1e1e1e" stroke-width="1" fill="none"></path></g><g stroke-linecap="round" transform="translate(565.2093826976679 155.4142464202933) rotate(0 6.120820957724504 1.1798952533570173)"><path d="M0.59 0 C4.5 0, 8.41 0, 11.65 0 M0.59 0 C4.26 0, 7.94 0, 11.65 0 M11.65 0 C12.04 0, 12.24 0.2, 12.24 0.59 M11.65 0 C12.04 0, 12.24 0.2, 12.24 0.59 M12.24 0.59 C12.24 0.97, 12.24 1.36, 12.24 1.77 M12.24 0.59 C12.24 1.01, 12.24 1.43, 12.24 1.77 M12.24 1.77 C12.24 2.16, 12.04 2.36, 11.65 2.36 M12.24 1.77 C12.24 2.16, 12.04 2.36, 11.65 2.36 M11.65 2.36 C8.93 2.36, 6.22 2.36, 0.59 2.36 M11.65 2.36 C9.39 2.36, 7.14 2.36, 0.59 2.36 M0.59 2.36 C0.2 2.36, 0 2.16, 0 1.77 M0.59 2.36 C0.2 2.36, 0 2.16, 0 1.77 M0 1.77 C0 1.36, 0 0.95, 0 0.59 M0 1.77 C0 1.36, 0 0.95, 0 0.59 M0 0.59 C0 0.2, 0.2 0, 0.59 0 M0 0.59 C0 0.2, 0.2 0, 0.59 0" stroke="#1e1e1e" stroke-width="1" fill="none"></path></g><g stroke-linecap="round" transform="translate(543.5212615754976 148.27999605115753) rotate(0 6.120820957724504 1.1798952533570173)"><path d="M0.59 0 C5 0, 9.41 0, 11.65 0 M0.59 0 C4.31 0, 8.03 0, 11.65 0 M11.65 0 C12.04 0, 12.24 0.2, 12.24 0.59 M11.65 0 C12.04 0, 12.24 0.2, 12.24 0.59 M12.24 0.59 C12.24 0.97, 12.24 1.35, 12.24 1.77 M12.24 0.59 C12.24 0.84, 12.24 1.09, 12.24 1.77 M12.24 1.77 C12.24 2.16, 12.04 2.36, 11.65 2.36 M12.24 1.77 C12.24 2.16, 12.04 2.36, 11.65 2.36 M11.65 2.36 C8.44 2.36, 5.23 2.36, 0.59 2.36 M11.65 2.36 C9.38 2.36, 7.11 2.36, 0.59 2.36 M0.59 2.36 C0.2 2.36, 0 2.16, 0 1.77 M0.59 2.36 C0.2 2.36, 0 2.16, 0 1.77 M0 1.77 C0 1.31, 0 0.85, 0 0.59 M0 1.77 C0 1.5, 0 1.24, 0 0.59 M0 0.59 C0 0.2, 0.2 0, 0.59 0 M0 0.59 C0 0.2, 0.2 0, 0.59 0" stroke="#1e1e1e" stroke-width="1" fill="none"></path></g><g stroke-linecap="round" transform="translate(525.3800515946284 113.3990669967398) rotate(0 24.114462888662388 15.125362843360563)"><path d="M7.56 0 C20.09 0, 32.63 0, 40.67 0 M7.56 0 C19.64 0, 31.71 0, 40.67 0 M40.67 0 C45.71 0, 48.23 2.52, 48.23 7.56 M40.67 0 C45.71 0, 48.23 2.52, 48.23 7.56 M48.23 7.56 C48.23 12.52, 48.23 17.47, 48.23 22.69 M48.23 7.56 C48.23 10.61, 48.23 13.67, 48.23 22.69 M48.23 22.69 C48.23 27.73, 45.71 30.25, 40.67 30.25 M48.23 22.69 C48.23 27.73, 45.71 30.25, 40.67 30.25 M40.67 30.25 C30.11 30.25, 19.55 30.25, 7.56 30.25 M40.67 30.25 C33.31 30.25, 25.94 30.25, 7.56 30.25 M7.56 30.25 C2.52 30.25, 0 27.73, 0 22.69 M7.56 30.25 C2.52 30.25, 0 27.73, 0 22.69 M0 22.69 C0 18.53, 0 14.37, 0 7.56 M0 22.69 C0 16.71, 0 10.72, 0 7.56 M0 7.56 C0 2.52, 2.52 0, 7.56 0 M0 7.56 C0 2.52, 2.52 0, 7.56 0" stroke="#1e1e1e" stroke-width="1" fill="none"></path></g><g transform="translate(526.8666667938232 166.08515907371572) rotate(0 22.133333206176758 12.5)"><text x="22.133333206176758" y="17.52" font-family="Virgil, Segoe UI Emoji" font-size="20px" fill="#1e1e1e" text-anchor="middle" style="white-space: pre;" direction="ltr" dominant-baseline="alphabetic">Host</text></g><g stroke-opacity="0" fill-opacity="0" stroke-linecap="round" transform="translate(240.62133841816444 94.62133841816438) rotate(0 58.37866158183567 58.378661581835615)"><path d="M116.76 58.38 C116.76 60.72, 116.61 63.09, 116.33 65.42 C116.05 67.74, 115.62 70.07, 115.06 72.35 C114.5 74.63, 113.8 76.89, 112.96 79.08 C112.13 81.27, 111.16 83.43, 110.07 85.51 C108.98 87.59, 107.76 89.61, 106.42 91.54 C105.09 93.47, 103.63 95.34, 102.08 97.09 C100.52 98.85, 98.85 100.52, 97.09 102.08 C95.34 103.63, 93.47 105.09, 91.54 106.42 C89.61 107.76, 87.59 108.98, 85.51 110.07 C83.43 111.16, 81.27 112.13, 79.08 112.96 C76.89 113.8, 74.63 114.5, 72.35 115.06 C70.07 115.62, 67.74 116.05, 65.42 116.33 C63.09 116.61, 60.72 116.76, 58.38 116.76 C56.03 116.76, 53.67 116.61, 51.34 116.33 C49.01 116.05, 46.69 115.62, 44.41 115.06 C42.13 114.5, 39.87 113.8, 37.68 112.96 C35.48 112.13, 33.33 111.16, 31.25 110.07 C29.17 108.98, 27.15 107.76, 25.22 106.42 C23.29 105.09, 21.42 103.63, 19.67 102.08 C17.91 100.52, 16.24 98.85, 14.68 97.09 C13.13 95.34, 11.67 93.47, 10.33 91.54 C9 89.61, 7.78 87.59, 6.69 85.51 C5.6 83.43, 4.63 81.27, 3.79 79.08 C2.96 76.89, 2.26 74.63, 1.7 72.35 C1.14 70.07, 0.71 67.74, 0.43 65.42 C0.14 63.09, 0 60.72, 0 58.38 C0 56.03, 0.14 53.67, 0.43 51.34 C0.71 49.01, 1.14 46.69, 1.7 44.41 C2.26 42.13, 2.96 39.87, 3.79 37.68 C4.63 35.48, 5.6 33.33, 6.69 31.25 C7.78 29.17, 9 27.15, 10.33 25.22 C11.67 23.29, 13.13 21.42, 14.68 19.67 C16.24 17.91, 17.91 16.24, 19.67 14.68 C21.42 13.13, 23.29 11.67, 25.22 10.33 C27.15 9, 29.17 7.78, 31.25 6.69 C33.33 5.6, 35.48 4.63, 37.68 3.79 C39.87 2.96, 42.13 2.26, 44.41 1.7 C46.69 1.14, 49.01 0.71, 51.34 0.43 C53.67 0.14, 56.03 0, 58.38 0 C60.72 0, 63.09 0.14, 65.42 0.43 C67.74 0.71, 70.07 1.14, 72.35 1.7 C74.63 2.26, 76.89 2.96, 79.08 3.79 C81.27 4.63, 83.43 5.6, 85.51 6.69 C87.59 7.78, 89.61 9, 91.54 10.33 C93.47 11.67, 95.34 13.13, 97.09 14.68 C98.85 16.24, 100.52 17.91, 102.08 19.67 C103.63 21.42, 105.09 23.29, 106.42 25.22 C107.76 27.15, 108.98 29.17, 110.07 31.25 C111.16 33.33, 112.13 35.48, 112.96 37.68 C113.8 39.87, 114.5 42.13, 115.06 44.41 C115.62 46.69, 116.05 49.01, 116.33 51.34 C116.61 53.67, 116.76 56.03, 116.76 58.38" stroke="#1e1e1e" stroke-width="1" fill="none"></path></g><g transform="translate(268.1499996185303 177.57262149586967) rotate(0 30.850000381469727 12.5)"><text x="30.850000381469727" y="17.52" font-family="Virgil, Segoe UI Emoji" font-size="20px" fill="#1e1e1e" text-anchor="middle" style="white-space: pre;" direction="ltr" dominant-baseline="alphabetic">Server</text></g><g stroke-linecap="round" transform="translate(280.3658200015225 103.42737850413022) rotate(0 18.63417999847718 34.78380266382396)"><path d="M9.32 0 C16.36 0, 23.41 0, 27.95 0 M9.32 0 C13.88 0, 18.44 0, 27.95 0 M27.95 0 C34.16 0, 37.27 3.11, 37.27 9.32 M27.95 0 C34.16 0, 37.27 3.11, 37.27 9.32 M37.27 9.32 C37.27 27.35, 37.27 45.38, 37.27 60.25 M37.27 9.32 C37.27 23.12, 37.27 36.93, 37.27 60.25 M37.27 60.25 C37.27 66.46, 34.16 69.57, 27.95 69.57 M37.27 60.25 C37.27 66.46, 34.16 69.57, 27.95 69.57 M27.95 69.57 C23.79 69.57, 19.63 69.57, 9.32 69.57 M27.95 69.57 C22.22 69.57, 16.49 69.57, 9.32 69.57 M9.32 69.57 C3.11 69.57, 0 66.46, 0 60.25 M9.32 69.57 C3.11 69.57, 0 66.46, 0 60.25 M0 60.25 C0 43.23, 0 26.22, 0 9.32 M0 60.25 C0 46.41, 0 32.57, 0 9.32 M0 9.32 C0 3.11, 3.11 0, 9.32 0 M0 9.32 C0 3.11, 3.11 0, 9.32 0" stroke="#1e1e1e" stroke-width="1" fill="none"></path></g><g stroke-linecap="round"><g transform="translate(285.1375628665364 111.12332917008581) rotate(0 14.286204665499099 1.1368683772161603e-13)"><path d="M0 0 C4.76 0, 23.81 0, 28.57 0 M0 0 C4.76 0, 23.81 0, 28.57 0" stroke="#1e1e1e" stroke-width="1" fill="none"></path></g></g><mask></mask><g stroke-linecap="round"><g transform="translate(284.22566016776454 117.52712694769417) rotate(0 14.286204665499099 1.1368683772161603e-13)"><path d="M0 0 C4.76 0, 23.81 0, 28.57 0 M0 0 C4.76 0, 23.81 0, 28.57 0" stroke="#1e1e1e" stroke-width="1" fill="none"></path></g></g><mask></mask><g stroke-linecap="round"><g transform="translate(284.35189604399693 123.93092472530344) rotate(0 14.286204665499099 1.1368683772161603e-13)"><path d="M0 0 C4.76 0, 23.81 0, 28.57 0 M0 0 C4.76 0, 23.81 0, 28.57 0" stroke="#1e1e1e" stroke-width="1" fill="none"></path></g></g><mask></mask><g stroke-linecap="round"><g transform="translate(284.2663606752267 130.33472250291226) rotate(0 14.286204665499099 1.1368683772161603e-13)"><path d="M0 0 C4.76 0, 23.81 0, 28.57 0 M0 0 C4.76 0, 23.81 0, 28.57 0" stroke="#1e1e1e" stroke-width="1" fill="none"></path></g></g><mask></mask><g stroke-linecap="round" transform="translate(305.80706962141585 137.26294819896265) rotate(0 3.320581637643386 2.414968463740564)"><path d="M6.64 2.41 C6.64 2.55, 6.62 2.7, 6.59 2.83 C6.56 2.97, 6.51 3.11, 6.44 3.24 C6.38 3.37, 6.29 3.5, 6.2 3.62 C6.1 3.74, 5.99 3.86, 5.86 3.97 C5.74 4.07, 5.6 4.18, 5.46 4.26 C5.31 4.35, 5.15 4.44, 4.98 4.51 C4.81 4.58, 4.64 4.64, 4.46 4.68 C4.28 4.73, 4.09 4.77, 3.9 4.79 C3.71 4.82, 3.51 4.83, 3.32 4.83 C3.13 4.83, 2.93 4.82, 2.74 4.79 C2.55 4.77, 2.37 4.73, 2.18 4.68 C2 4.64, 1.83 4.58, 1.66 4.51 C1.49 4.44, 1.33 4.35, 1.19 4.26 C1.04 4.18, 0.9 4.07, 0.78 3.97 C0.65 3.86, 0.54 3.74, 0.44 3.62 C0.35 3.5, 0.27 3.37, 0.2 3.24 C0.13 3.11, 0.08 2.97, 0.05 2.83 C0.02 2.7, 0 2.55, 0 2.41 C0 2.28, 0.02 2.13, 0.05 2 C0.08 1.86, 0.13 1.72, 0.2 1.59 C0.27 1.46, 0.35 1.33, 0.44 1.21 C0.54 1.09, 0.65 0.97, 0.78 0.86 C0.9 0.76, 1.04 0.65, 1.19 0.56 C1.33 0.48, 1.49 0.39, 1.66 0.32 C1.83 0.25, 2 0.19, 2.18 0.15 C2.37 0.1, 2.55 0.06, 2.74 0.04 C2.93 0.01, 3.13 0, 3.32 0 C3.51 0, 3.71 0.01, 3.9 0.04 C4.09 0.06, 4.28 0.1, 4.46 0.15 C4.64 0.19, 4.81 0.25, 4.98 0.32 C5.15 0.39, 5.31 0.48, 5.46 0.56 C5.6 0.65, 5.74 0.76, 5.86 0.86 C5.99 0.97, 6.1 1.09, 6.2 1.21 C6.29 1.33, 6.38 1.46, 6.44 1.59 C6.51 1.72, 6.56 1.86, 6.59 2 C6.62 2.13, 6.63 2.35, 6.64 2.41 C6.65 2.48, 6.65 2.35, 6.64 2.41" stroke="#1e1e1e" stroke-width="1" fill="none"></path></g><g stroke-linecap="round" transform="translate(10 29) rotate(0 97 72.5)"><path d="M32 0 C73.84 0, 115.69 0, 162 0 M32 0 C59.77 0, 87.53 0, 162 0 M162 0 C183.33 0, 194 10.67, 194 32 M162 0 C183.33 0, 194 10.67, 194 32 M194 32 C194 55.52, 194 79.05, 194 113 M194 32 C194 48.64, 194 65.27, 194 113 M194 113 C194 134.33, 183.33 145, 162 145 M194 113 C194 134.33, 183.33 145, 162 145 M162 145 C111.51 145, 61.03 145, 32 145 M162 145 C132.76 145, 103.53 145, 32 145 M32 145 C10.67 145, 0 134.33, 0 113 M32 145 C10.67 145, 0 134.33, 0 113 M0 113 C0 94.45, 0 75.91, 0 32 M0 113 C0 89.74, 0 66.48, 0 32 M0 32 C0 10.67, 10.67 0, 32 0 M0 32 C0 10.67, 10.67 0, 32 0" stroke="#1e1e1e" stroke-width="1" fill="none"></path></g><g transform="translate(19.933334350585938 64) rotate(0 87.06666564941406 37.5)"><text x="87.06666564941406" y="17.52" font-family="Virgil, Segoe UI Emoji" font-size="20px" fill="#1e1e1e" text-anchor="middle" style="white-space: pre;" direction="ltr" dominant-baseline="alphabetic">Parse the header</text><text x="87.06666564941406" y="42.519999999999996" font-family="Virgil, Segoe UI Emoji" font-size="20px" fill="#1e1e1e" text-anchor="middle" style="white-space: pre;" direction="ltr" dominant-baseline="alphabetic">&amp; choose the </text><text x="87.06666564941406" y="67.52" font-family="Virgil, Segoe UI Emoji" font-size="20px" fill="#1e1e1e" text-anchor="middle" style="white-space: pre;" direction="ltr" dominant-baseline="alphabetic">endpoint handler</text></g><g stroke-linecap="round" transform="translate(15 215) rotate(0 85 67.5)"><path d="M32 0 C66.71 0, 101.42 0, 138 0 M32 0 C53.39 0, 74.78 0, 138 0 M138 0 C159.33 0, 170 10.67, 170 32 M138 0 C159.33 0, 170 10.67, 170 32 M170 32 C170 54.65, 170 77.3, 170 103 M170 32 C170 47.79, 170 63.58, 170 103 M170 103 C170 124.33, 159.33 135, 138 135 M170 103 C170 124.33, 159.33 135, 138 135 M138 135 C108.84 135, 79.69 135, 32 135 M138 135 C96.08 135, 54.15 135, 32 135 M32 135 C10.67 135, 0 124.33, 0 103 M32 135 C10.67 135, 0 124.33, 0 103 M0 103 C0 81.04, 0 59.08, 0 32 M0 103 C0 79.6, 0 56.19, 0 32 M0 32 C0 10.67, 10.67 0, 32 0 M0 32 C0 10.67, 10.67 0, 32 0" stroke="#1e1e1e" stroke-width="1" fill="none"></path></g><g transform="translate(21.85832977294922 245) rotate(0 78.14167022705078 37.5)"><text x="78.14167022705078" y="17.52" font-family="Virgil, Segoe UI Emoji" font-size="20px" fill="#1e1e1e" text-anchor="middle" style="white-space: pre;" direction="ltr" dominant-baseline="alphabetic">Load the image</text><text x="78.14167022705078" y="42.519999999999996" font-family="Virgil, Segoe UI Emoji" font-size="20px" fill="#1e1e1e" text-anchor="middle" style="white-space: pre;" direction="ltr" dominant-baseline="alphabetic">to memory and </text><text x="78.14167022705078" y="67.52" font-family="Virgil, Segoe UI Emoji" font-size="20px" fill="#1e1e1e" text-anchor="middle" style="white-space: pre;" direction="ltr" dominant-baseline="alphabetic">raise semaphore</text></g><g stroke-linecap="round"><g transform="translate(483 147) rotate(0 -67.5 -1)"><path d="M0 0 C-22.5 -0.33, -112.5 -1.67, -135 -2 M0 0 C-22.5 -0.33, -112.5 -1.67, -135 -2" stroke="#1e1e1e" stroke-width="1" fill="none"></path></g><g transform="translate(483 147) rotate(0 -67.5 -1)"><path d="M-111.38 -10.2 C-117.88 -7.94, -124.38 -5.69, -135 -2 M-111.38 -10.2 C-117.16 -8.2, -122.94 -6.19, -135 -2" stroke="#1e1e1e" stroke-width="1" fill="none"></path></g><g transform="translate(483 147) rotate(0 -67.5 -1)"><path d="M-111.64 6.9 C-118.07 4.45, -124.5 2, -135 -2 M-111.64 6.9 C-117.35 4.72, -123.06 2.55, -135 -2" stroke="#1e1e1e" stroke-width="1" fill="none"></path></g></g><mask></mask><g transform="translate(356 10) rotate(0 117.9000015258789 37.5)"><text x="0" y="17.52" font-family="Virgil, Segoe UI Emoji" font-size="20px" fill="#1e1e1e" text-anchor="start" style="white-space: pre;" direction="ltr" dominant-baseline="alphabetic">Open the website</text><text x="0" y="42.519999999999996" font-family="Virgil, Segoe UI Emoji" font-size="20px" fill="#1e1e1e" text-anchor="start" style="white-space: pre;" direction="ltr" dominant-baseline="alphabetic">Choose the image/data</text><text x="0" y="67.52" font-family="Virgil, Segoe UI Emoji" font-size="20px" fill="#1e1e1e" text-anchor="start" style="white-space: pre;" direction="ltr" dominant-baseline="alphabetic">Upload it to the server</text></g><g stroke-linecap="round"><g transform="translate(267 114.75374659571827) rotate(0 -29 -6.594843174112583)"><path d="M0 0 C-9.67 -2.2, -48.33 -10.99, -58 -13.19 M0 0 C-9.67 -2.2, -48.33 -10.99, -58 -13.19" stroke="#1e1e1e" stroke-width="1" fill="none"></path></g><g transform="translate(267 114.75374659571827) rotate(0 -29 -6.594843174112583)"><path d="M-33.2 -16.32 C-40.26 -15.43, -47.32 -14.54, -58 -13.19 M-33.2 -16.32 C-40.55 -15.39, -47.9 -14.46, -58 -13.19" stroke="#1e1e1e" stroke-width="1" fill="none"></path></g><g transform="translate(267 114.75374659571827) rotate(0 -29 -6.594843174112583)"><path d="M-36.99 0.36 C-42.97 -3.5, -48.95 -7.36, -58 -13.19 M-36.99 0.36 C-43.22 -3.66, -49.45 -7.68, -58 -13.19" stroke="#1e1e1e" stroke-width="1" fill="none"></path></g></g><mask></mask><g stroke-opacity="0" fill-opacity="0" stroke-linecap="round" transform="translate(38.62133841816444 490.62133841816444) rotate(0 58.378661581835615 58.378661581835615)"><path d="M116.76 58.38 C116.76 60.72, 116.61 63.09, 116.33 65.42 C116.05 67.74, 115.62 70.07, 115.06 72.35 C114.5 74.63, 113.8 76.89, 112.96 79.08 C112.13 81.27, 111.16 83.43, 110.07 85.51 C108.98 87.59, 107.76 89.61, 106.42 91.54 C105.09 93.47, 103.63 95.34, 102.08 97.09 C100.52 98.85, 98.85 100.52, 97.09 102.08 C95.34 103.63, 93.47 105.09, 91.54 106.42 C89.61 107.76, 87.59 108.98, 85.51 110.07 C83.43 111.16, 81.27 112.13, 79.08 112.96 C76.89 113.8, 74.63 114.5, 72.35 115.06 C70.07 115.62, 67.74 116.05, 65.42 116.33 C63.09 116.61, 60.72 116.76, 58.38 116.76 C56.03 116.76, 53.67 116.61, 51.34 116.33 C49.01 116.05, 46.69 115.62, 44.41 115.06 C42.13 114.5, 39.87 113.8, 37.68 112.96 C35.48 112.13, 33.33 111.16, 31.25 110.07 C29.17 108.98, 27.15 107.76, 25.22 106.42 C23.29 105.09, 21.42 103.63, 19.67 102.08 C17.91 100.52, 16.24 98.85, 14.68 97.09 C13.13 95.34, 11.67 93.47, 10.33 91.54 C9 89.61, 7.78 87.59, 6.69 85.51 C5.6 83.43, 4.63 81.27, 3.79 79.08 C2.96 76.89, 2.26 74.63, 1.7 72.35 C1.14 70.07, 0.71 67.74, 0.43 65.42 C0.14 63.09, 0 60.72, 0 58.38 C0 56.03, 0.14 53.67, 0.43 51.34 C0.71 49.01, 1.14 46.69, 1.7 44.41 C2.26 42.13, 2.96 39.87, 3.79 37.68 C4.63 35.48, 5.6 33.33, 6.69 31.25 C7.78 29.17, 9 27.15, 10.33 25.22 C11.67 23.29, 13.13 21.42, 14.68 19.67 C16.24 17.91, 17.91 16.24, 19.67 14.68 C21.42 13.13, 23.29 11.67, 25.22 10.33 C27.15 9, 29.17 7.78, 31.25 6.69 C33.33 5.6, 35.48 4.63, 37.68 3.79 C39.87 2.96, 42.13 2.26, 44.41 1.7 C46.69 1.14, 49.01 0.71, 51.34 0.43 C53.67 0.14, 56.03 0, 58.38 0 C60.72 0, 63.09 0.14, 65.42 0.43 C67.74 0.71, 70.07 1.14, 72.35 1.7 C74.63 2.26, 76.89 2.96, 79.08 3.79 C81.27 4.63, 83.43 5.6, 85.51 6.69 C87.59 7.78, 89.61 9, 91.54 10.33 C93.47 11.67, 95.34 13.13, 97.09 14.68 C98.85 16.24, 100.52 17.91, 102.08 19.67 C103.63 21.42, 105.09 23.29, 106.42 25.22 C107.76 27.15, 108.98 29.17, 110.07 31.25 C111.16 33.33, 112.13 35.48, 112.96 37.68 C113.8 39.87, 114.5 42.13, 115.06 44.41 C115.62 46.69, 116.05 49.01, 116.33 51.34 C116.61 53.67, 116.76 56.03, 116.76 58.38" stroke="#1e1e1e" stroke-width="1" fill="none"></path></g><g stroke-linecap="round"><g transform="translate(72.37692161307677 518.7742513488911) rotate(0 25.262497136909758 15.22026225018783)"><path d="M0 0 C-0.05 5.36, -1.44 25.97, -0.31 32.17 C0.81 38.36, -0.63 36.35, 6.75 37.19 C14.12 38.02, 36.59 38.08, 43.93 37.19 C51.28 36.3, 49.71 37.95, 50.84 31.85 C51.96 25.76, 51.94 7.06, 50.68 0.63 C49.43 -5.81, 50.34 -5.52, 43.31 -6.75 C36.27 -7.98, 15.69 -7.87, 8.47 -6.75 C1.26 -5.62, 1.41 -1.12, 0 0 M0 0 C-0.05 5.36, -1.44 25.97, -0.31 32.17 C0.81 38.36, -0.63 36.35, 6.75 37.19 C14.12 38.02, 36.59 38.08, 43.93 37.19 C51.28 36.3, 49.71 37.95, 50.84 31.85 C51.96 25.76, 51.94 7.06, 50.68 0.63 C49.43 -5.81, 50.34 -5.52, 43.31 -6.75 C36.27 -7.98, 15.69 -7.87, 8.47 -6.75 C1.26 -5.62, 1.41 -1.12, 0 0" stroke="#1e1e1e" stroke-width="1" fill="none"></path></g></g><mask></mask><g stroke-linecap="round"><g transform="translate(71.9061918527616 547.8025865683214) rotate(0 25.576316977119802 -7.060946404726337)"><path d="M0 0 C3.74 -2.35, 17.1 -13.29, 22.44 -14.12 C27.77 -14.96, 29.37 -5.44, 32.01 -5.02 C34.65 -4.6, 35.1 -12.11, 38.29 -11.61 C41.48 -11.11, 49.01 -3.64, 51.15 -2.04 M0 0 C3.74 -2.35, 17.1 -13.29, 22.44 -14.12 C27.77 -14.96, 29.37 -5.44, 32.01 -5.02 C34.65 -4.6, 35.1 -12.11, 38.29 -11.61 C41.48 -11.11, 49.01 -3.64, 51.15 -2.04" stroke="#1e1e1e" stroke-width="1" fill="none"></path></g></g><mask></mask><g stroke-linecap="round" transform="translate(103.75890563408257 519.8726207896264) rotate(0 3.4520182423106576 3.4520182423106576)"><path d="M6.9 3.45 C6.9 3.65, 6.89 3.85, 6.85 4.05 C6.82 4.25, 6.76 4.44, 6.7 4.63 C6.63 4.82, 6.54 5, 6.44 5.18 C6.34 5.35, 6.22 5.52, 6.1 5.67 C5.97 5.82, 5.82 5.97, 5.67 6.1 C5.52 6.22, 5.35 6.34, 5.18 6.44 C5 6.54, 4.82 6.63, 4.63 6.7 C4.44 6.76, 4.25 6.82, 4.05 6.85 C3.85 6.89, 3.65 6.9, 3.45 6.9 C3.25 6.9, 3.05 6.89, 2.85 6.85 C2.66 6.82, 2.46 6.76, 2.27 6.7 C2.08 6.63, 1.9 6.54, 1.73 6.44 C1.55 6.34, 1.39 6.22, 1.23 6.1 C1.08 5.97, 0.94 5.82, 0.81 5.67 C0.68 5.52, 0.56 5.35, 0.46 5.18 C0.36 5, 0.28 4.82, 0.21 4.63 C0.14 4.44, 0.09 4.25, 0.05 4.05 C0.02 3.85, 0 3.65, 0 3.45 C0 3.25, 0.02 3.05, 0.05 2.85 C0.09 2.66, 0.14 2.46, 0.21 2.27 C0.28 2.08, 0.36 1.9, 0.46 1.73 C0.56 1.55, 0.68 1.39, 0.81 1.23 C0.94 1.08, 1.08 0.94, 1.23 0.81 C1.39 0.68, 1.55 0.56, 1.73 0.46 C1.9 0.36, 2.08 0.28, 2.27 0.21 C2.46 0.14, 2.66 0.09, 2.85 0.05 C3.05 0.02, 3.25 0, 3.45 0 C3.65 0, 3.85 0.02, 4.05 0.05 C4.25 0.09, 4.44 0.14, 4.63 0.21 C4.82 0.28, 5 0.36, 5.18 0.46 C5.35 0.56, 5.52 0.68, 5.67 0.81 C5.82 0.94, 5.97 1.08, 6.1 1.23 C6.22 1.39, 6.34 1.55, 6.44 1.73 C6.54 1.9, 6.63 2.08, 6.7 2.27 C6.76 2.46, 6.82 2.66, 6.85 2.85 C6.89 3.05, 6.9 3.35, 6.9 3.45 C6.91 3.55, 6.91 3.35, 6.9 3.45" stroke="#1e1e1e" stroke-width="1" fill="none"></path></g><g transform="translate(68.07003021240234 562.4662098563756) rotate(0 28.924999237060547 12.5)"><text x="28.924999237060547" y="17.52" font-family="Virgil, Segoe UI Emoji" font-size="20px" fill="#1e1e1e" text-anchor="middle" style="white-space: pre;" direction="ltr" dominant-baseline="alphabetic">Image</text></g><g stroke-linecap="round"><g transform="translate(356 115) rotate(0 67 0.5)"><path d="M0 0 C22.33 0.17, 111.67 0.83, 134 1 M0 0 C22.33 0.17, 111.67 0.83, 134 1" stroke="#1e1e1e" stroke-width="1" fill="none"></path></g><g transform="translate(356 115) rotate(0 67 0.5)"><path d="M110.44 9.37 C116.23 7.32, 122.02 5.26, 134 1 M110.44 9.37 C115.25 7.67, 120.06 5.96, 134 1" stroke="#1e1e1e" stroke-width="1" fill="none"></path></g><g transform="translate(356 115) rotate(0 67 0.5)"><path d="M110.57 -7.73 C116.33 -5.58, 122.08 -3.44, 134 1 M110.57 -7.73 C115.35 -5.94, 120.14 -4.16, 134 1" stroke="#1e1e1e" stroke-width="1" fill="none"></path></g></g><mask></mask><g stroke-linecap="round"><g transform="translate(110.27703472336657 175) rotate(0 -0.15626712238702112 18.5)"><path d="M0 0 C-0.05 6.17, -0.26 30.83, -0.31 37 M0 0 C-0.05 6.17, -0.26 30.83, -0.31 37" stroke="#1e1e1e" stroke-width="1" fill="none"></path></g><g transform="translate(110.27703472336657 175) rotate(0 -0.15626712238702112 18.5)"><path d="M-6.49 19.56 C-4.7 24.63, -2.9 29.69, -0.31 37 M-6.49 19.56 C-5.22 23.14, -3.95 26.73, -0.31 37" stroke="#1e1e1e" stroke-width="1" fill="none"></path></g><g transform="translate(110.27703472336657 175) rotate(0 -0.15626712238702112 18.5)"><path d="M6.16 19.67 C4.28 24.7, 2.4 29.74, -0.31 37 M6.16 19.67 C4.83 23.23, 3.5 26.79, -0.31 37" stroke="#1e1e1e" stroke-width="1" fill="none"></path></g></g><mask></mask><g stroke-linecap="round" transform="translate(32.5 387.5) rotate(0 68.5 53.5)"><path d="M26.75 0 C53.39 0, 80.02 0, 110.25 0 M26.75 0 C45.32 0, 63.89 0, 110.25 0 M110.25 0 C128.08 0, 137 8.92, 137 26.75 M110.25 0 C128.08 0, 137 8.92, 137 26.75 M137 26.75 C137 41.47, 137 56.18, 137 80.25 M137 26.75 C137 47.91, 137 69.07, 137 80.25 M137 80.25 C137 98.08, 128.08 107, 110.25 107 M137 80.25 C137 98.08, 128.08 107, 110.25 107 M110.25 107 C84.42 107, 58.6 107, 26.75 107 M110.25 107 C82.73 107, 55.2 107, 26.75 107 M26.75 107 C8.92 107, 0 98.08, 0 80.25 M26.75 107 C8.92 107, 0 98.08, 0 80.25 M0 80.25 C0 68.77, 0 57.28, 0 26.75 M0 80.25 C0 59.65, 0 39.05, 0 26.75 M0 26.75 C0 8.92, 8.92 0, 26.75 0 M0 26.75 C0 8.92, 8.92 0, 26.75 0" stroke="#1e1e1e" stroke-width="1" fill="none"></path></g><g transform="translate(40.59166717529297 403.5) rotate(0 60.40833282470703 37.5)"><text x="60.40833282470703" y="17.52" font-family="Virgil, Segoe UI Emoji" font-size="20px" fill="#1e1e1e" text-anchor="middle" style="white-space: pre;" direction="ltr" dominant-baseline="alphabetic">Display the </text><text x="60.40833282470703" y="42.519999999999996" font-family="Virgil, Segoe UI Emoji" font-size="20px" fill="#1e1e1e" text-anchor="middle" style="white-space: pre;" direction="ltr" dominant-baseline="alphabetic">image on </text><text x="60.40833282470703" y="67.52" font-family="Virgil, Segoe UI Emoji" font-size="20px" fill="#1e1e1e" text-anchor="middle" style="white-space: pre;" direction="ltr" dominant-baseline="alphabetic">LED strip</text></g><g stroke-linecap="round"><g transform="translate(107.99514599999998 350) rotate(0 0 17)"><path d="M0 0 C0 5.67, 0 28.33, 0 34 M0 0 C0 5.67, 0 28.33, 0 34" stroke="#1e1e1e" stroke-width="1" fill="none"></path></g><g transform="translate(107.99514599999998 350) rotate(0 0 17)"><path d="M-5.81 18.03 C-3.6 24.11, -1.38 30.2, 0 34 M-5.81 18.03 C-4.03 22.94, -2.24 27.85, 0 34" stroke="#1e1e1e" stroke-width="1" fill="none"></path></g><g transform="translate(107.99514599999998 350) rotate(0 0 17)"><path d="M5.81 18.03 C3.6 24.11, 1.38 30.2, 0 34 M5.81 18.03 C4.03 22.94, 2.24 27.85, 0 34" stroke="#1e1e1e" stroke-width="1" fill="none"></path></g></g><mask></mask></svg>