<?xml version="1.0" standalone="no"?>
<!DOCTYPE svg PUBLIC "-//W3C//DTD SVG 20010904//EN"
 "http://www.w3.org/TR/2001/REC-SVG-20010904/DTD/svg10.dtd">
<svg version="1.0" xmlns="http://www.w3.org/2000/svg"
 width="512.000000pt" height="512.000000pt" viewBox="0 0 512.000000 512.000000"
 preserveAspectRatio="xMidYMid meet">
<metadata>
Created by potrace 1.11, written by Peter Selinger 2001-2013
</metadata>
<g transform="translate(0.000000,512.000000) scale(0.100000,-0.100000)"
fill="#000000" stroke="none">
<path d="M4265 4426 l-180 -31 -3 -508 -2 -507 -58 29 c-128 65 -316 99 -472
86 -408 -34 -681 -296 -781 -750 -26 -117 -36 -366 -20 -495 52 -422 279 -723
631 -839 231 -76 576 -67 963 26 l107 26 0 1498 c0 825 -1 1499 -2 1498 -2 -1
-84 -15 -183 -33z m-454 -1271 c70 -17 153 -54 218 -96 l51 -34 0 -651 0 -652
-87 -16 c-131 -24 -371 -22 -454 4 -187 57 -331 212 -388 418 -84 304 -25 713
129 885 127 143 317 193 531 142z"/>
<path d="M1604 4331 c-62 -28 -119 -85 -144 -143 -19 -44 -22 -65 -18 -143 3
-76 8 -98 31 -137 55 -94 133 -137 248 -138 65 0 85 4 130 28 102 53 157 164
146 293 -10 114 -65 196 -162 240 -55 26 -175 25 -231 0z"/>
<path d="M862 3298 l3 -153 413 -3 413 -2 -3 -938 c-3 -907 -4 -939 -23 -989
-36 -94 -75 -137 -161 -180 l-78 -38 -156 1 c-168 1 -231 14 -409 85 -41 16
-75 28 -77 26 -5 -4 -104 -288 -104 -297 0 -22 226 -99 371 -126 142 -27 408
-24 512 4 161 44 299 145 376 275 41 69 86 199 100 287 7 42 11 440 11 1133
l0 1067 -595 0 -596 0 3 -152z"/>
</g>
</svg>
