<?xml version="1.0" standalone="no"?>
<!DOCTYPE svg PUBLIC "-//W3C//DTD SVG 20010904//EN"
 "http://www.w3.org/TR/2001/REC-SVG-20010904/DTD/svg10.dtd">
<svg version="1.0" xmlns="http://www.w3.org/2000/svg"
 width="512.000000pt" height="512.000000pt" viewBox="0 0 512.000000 512.000000"
 preserveAspectRatio="xMidYMid meet">
<metadata>
Created by potrace 1.11, written by Peter Selinger 2001-2013
</metadata>
<g transform="translate(0.000000,512.000000) scale(0.100000,-0.100000)"
fill="#000000" stroke="none">
<path d="M393 5106 c-186 -45 -345 -207 -382 -388 -8 -38 -11 -677 -9 -2183
l3 -2130 22 -60 c67 -175 220 -306 393 -335 46 -8 684 -10 2180 -8 l2115 3 68
27 c86 35 141 73 205 143 60 66 106 156 122 240 8 44 10 633 8 2180 l-3 2120
-23 59 c-64 169 -213 300 -380 335 -82 17 -4248 14 -4319 -3z m4057 -2145 l0
-1498 -107 -26 c-387 -93 -732 -102 -963 -26 -352 116 -579 417 -631 839 -16
129 -6 378 20 495 100 454 373 716 781 750 156 13 344 -21 472 -86 l58 -29 2
507 3 508 180 31 c99 18 181 32 183 33 1 1 2 -673 2 -1498z m-2615 1370 c97
-44 152 -126 162 -240 11 -129 -44 -240 -146 -293 -45 -24 -65 -28 -130 -28
-115 1 -193 44 -248 138 -23 39 -28 61 -31 137 -4 78 -1 99 18 143 25 58 82
115 144 143 56 25 176 26 231 0z m215 -1948 c0 -693 -4 -1091 -11 -1133 -46
-291 -216 -491 -476 -562 -104 -28 -370 -31 -512 -4 -145 27 -371 104 -371
126 0 9 99 293 104 297 2 2 36 -10 77 -26 178 -71 241 -84 409 -85 l156 -1 78
38 c86 43 125 86 161 180 19 50 20 82 23 995 l3 942 -416 0 -415 0 0 150 0
150 595 0 595 0 0 -1067z"/>
<path d="M3575 3170 c-116 -16 -217 -70 -295 -157 -154 -172 -213 -581 -129
-885 57 -206 200 -359 389 -419 86 -27 311 -29 448 -4 l92 17 0 652 0 652 -56
36 c-79 52 -197 95 -295 107 -46 6 -86 10 -89 10 -3 -1 -32 -5 -65 -9z"/>
</g>
</svg>
